<?xml version="1.0" encoding="UTF-8"?>
<svg width="736px" height="605px" viewBox="0 0 736 605" version="1.1" xmlns="http://www.w3.org/2000/svg" xmlns:xlink="http://www.w3.org/1999/xlink">
    <!-- Generator: Sketch 52.2 (67145) - http://www.bohemiancoding.com/sketch -->
    <title>Group 4</title>
    <desc>Created with Sketch.</desc>
    <g id="Page-1" stroke="none" stroke-width="1" fill="none" fill-rule="evenodd">
        <g id="Group-4">
            <g id="Group-22">
                <g id="NewSouthWales" transform="translate(509.000000, 328.000000)">
                    <path d="M227,6.93399444 L227,1.69041248 L225.238327,0 L223.514015,1.69041248 L220.06539,1.69041248 L218.303717,3.41385766 L213.129342,3.41385766 L211.369107,3.41385766 L209.643357,1.69041248 L209.643357,3.41385766 L207.919045,1.69041248 L206.194732,3.41385766 L204.434496,3.41385766 L202.708747,5.20911306 L200.984434,5.20911306 L197.498449,6.93399444 L199.294608,8.62297072 L199.294608,10.3478521 L199.294608,13.83352 L197.498449,13.83352 L195.774137,13.83352 L195.774137,15.5569652 L194.048387,13.83352 L190.563839,13.83352 L190.563839,15.5569652 L188.838089,17.2818465 L187.148263,17.2818465 L185.422514,15.5569652 L185.422514,13.83352 L181.937965,12.1431075 L181.937965,10.3478521 L180.212216,10.3478521 L178.487903,8.62297072 L175.001918,8.62297072 L171.551856,8.62297072 L168.067308,6.93399444 L164.617246,6.93399444 L159.406948,8.62297072 L155.920963,8.62297072 L155.920963,6.93399444 L154.19665,6.93399444 L152.472338,8.62297072 L150.746588,10.3478521 L147.26204,12.1431075 L145.537727,13.83352 L143.846464,15.5569652 L0,15.5569652 L0,105.664424 L1.72574948,107.354837 L3.45149896,107.354837 L5.21029777,107.354837 L8.66179673,109.148656 L10.3861093,109.148656 L12.146345,107.354837 L13.8720945,107.354837 L17.2862334,107.354837 L20.8067048,109.148656 L22.4965311,109.148656 L22.4965311,110.873537 L24.2222806,110.873537 L26.0170026,112.56395 L24.2222806,114.288831 L26.0170026,116.08265 L27.7413151,117.773063 L27.7413151,119.497944 L29.4311414,119.497944 L31.1568909,117.773063 L31.1568909,116.08265 L32.9516129,116.08265 L32.9516129,117.773063 L36.3671887,117.773063 L39.8531739,119.497944 L41.5774865,119.497944 L43.301799,121.221389 L43.301799,124.707057 L43.301799,126.431938 L45.0261116,126.431938 L45.0261116,128.155384 L46.7877842,128.155384 L46.7877842,129.91617 L48.5120968,131.641052 L53.7223945,133.365933 L57.1724566,135.089378 L58.8982061,136.850165 L60.6584418,138.575046 L62.3827543,140.298491 L64.1085038,142.024809 L65.8328164,143.784159 L69.3188016,143.784159 L71.0431141,143.784159 L71.0431141,142.024809 L71.0431141,140.298491 L72.7343774,140.298491 L74.5290994,138.575046 L76.2534119,138.575046 L79.6689877,138.575046 L83.1894592,138.575046 L84.8792855,140.298491 L86.603598,142.024809 L91.8138958,142.024809 L93.5396453,142.024809 L97.0241935,142.024809 L98.749943,142.024809 L100.474256,142.024809 L103.960241,142.024809 L105.684553,143.784159 L109.170539,143.784159 L110.894851,142.024809 L112.619164,142.024809 L114.34635,142.024809 L116.105149,140.298491 L117.829461,140.298491 L117.829461,142.024809 L119.556648,142.024809 L121.28096,140.298491 L124.766946,142.024809 L126.491258,142.024809 L126.491258,145.50904 L128.181084,150.718153 L129.977243,152.443035 L129.977243,154.167916 L128.181084,155.856892 L129.977243,155.856892 L161.132697,168 L161.132697,166.311024 L162.85701,164.587579 L161.132697,161.066006 L161.132697,157.652148 L162.85701,154.167916 L162.85701,152.443035 L164.617246,148.958803 L164.617246,143.784159 L164.617246,140.298491 L166.341558,138.575046 L168.067308,135.089378 L169.79162,133.365933 L173.277605,128.155384 L173.277605,126.431938 L175.001918,126.431938 L175.001918,124.707057 L176.727667,122.982176 L176.727667,124.707057 L176.727667,122.982176 L176.727667,121.221389 L176.727667,119.497944 L178.487903,114.288831 L178.487903,112.56395 L180.212216,110.873537 L181.937965,109.148656 L185.422514,105.664424 L183.627792,105.664424 L185.422514,105.664424 L185.422514,103.939543 L185.422514,102.216097 L187.148263,100.420842 L185.422514,98.7304296 L187.148263,97.0055482 L188.838089,97.0055482 L188.838089,95.282103 L188.838089,93.5213165 L190.563839,93.5213165 L192.358561,91.7964351 L192.358561,90.0715538 L195.774137,84.8624407 L197.498449,84.8624407 L200.984434,83.1389955 L202.708747,83.1389955 L200.984434,81.4126779 L202.708747,81.4126779 L202.708747,79.6533276 L204.434496,79.6533276 L207.919045,77.9284462 L207.919045,76.2035649 L207.919045,74.4786835 L207.919045,70.9944518 L213.129342,65.7853387 L214.855092,58.8499081 L216.579404,55.4360504 L216.579404,53.7111691 L218.303717,50.2283736 L216.579404,46.7771746 L216.579404,43.2929429 L220.06539,36.3589485 L220.06539,32.9106219 L221.789702,31.1498354 L223.514015,24.215841 L223.514015,20.7675144 L225.238327,15.5569652 L227,12.1431075 L227,8.62297072 L227,6.93399444 Z M150.746588,129.91617 L148.986352,129.91617 L147.26204,129.91617 L147.26204,131.641052 L147.26204,133.365933 L145.537727,135.089378 L145.537727,138.575046 L145.537727,140.298491 L143.846464,140.298491 L142.051742,138.575046 L142.051742,136.850165 L140.325993,136.850165 L140.325993,135.089378 L140.325993,133.365933 L142.051742,129.91617 L145.537727,126.431938 L147.26204,126.431938 L147.26204,128.155384 L148.986352,128.155384 L152.472338,129.91617 L150.746588,129.91617 Z" id="Fill-8" fill="#465961" opacity="0.393856957"></path>
                    <path d="M58.692,76 L57.524,76 L51.86,67.744 L51.156,66.656 L51.124,66.672 L51.14,67.968 L51.14,76 L49.668,76 L49.668,64 L51.156,64 L57.236,73.072 L57.268,73.056 L57.236,71.776 L57.236,64 L58.692,64 L58.692,76 Z M65.46,76.192 C63.9026589,76.192 62.7746702,75.7733375 62.076,74.936 C61.3773298,74.0986625 61.028,72.7786757 61.028,70.976 C61.028,69.4613258 61.3586634,68.304004 62.02,67.504 C62.6813366,66.703996 63.6626602,66.304 64.964,66.304 C66.1480059,66.304 67.0706634,66.666663 67.732,67.392 C68.3933366,68.117337 68.724,69.2213259 68.724,70.704 C68.724,70.9173344 68.7133334,71.1626653 68.692,71.44 L62.58,71.44 C62.6226669,72.6773395 62.881331,73.5493308 63.356,74.056 C63.830669,74.5626692 64.5906614,74.816 65.636,74.816 C66.5320045,74.816 67.3959958,74.6133354 68.228,74.208 L68.404,75.488 C67.5399957,75.9573357 66.5586722,76.192 65.46,76.192 Z M62.548,70.4 L67.332,70.4 C67.2999998,68.5439907 66.5160077,67.616 64.98,67.616 C64.179996,67.616 63.5880019,67.8426644 63.204,68.296 C62.8199981,68.7493356 62.6013336,69.4506619 62.548,70.4 Z M75.508,66.464 L77.124,66.464 L78.868,73.568 L79.156,74.832 L79.204,74.832 L79.444,73.568 L80.948,66.464 L82.436,66.464 L80.132,76 L78.244,76 L76.644,69.296 L76.372,68.016 L76.324,68.016 L76.036,69.296 L74.388,76 L72.532,76 L70.116,66.464 L71.636,66.464 L73.22,73.52 L73.476,74.784 L73.524,74.784 L73.796,73.52 L75.508,66.464 Z M96.484,72.576 C96.484,73.717339 96.1293369,74.6106634 95.42,75.256 C94.7106631,75.9013366 93.7000066,76.224 92.388,76.224 C91.0866602,76.224 89.9133386,75.920003 88.868,75.312 L89.124,73.824 C90.1266717,74.432003 91.2093275,74.736 92.372,74.736 C93.2040042,74.736 93.8333312,74.5573351 94.26,74.2 C94.6866688,73.8426649 94.9,73.3386699 94.9,72.688 C94.9,72.2719979 94.7533348,71.9146682 94.46,71.616 C94.1666652,71.3173318 93.8013355,71.0906674 93.364,70.936 C92.9266645,70.7813326 92.4493359,70.6026677 91.932,70.4 C91.4146641,70.1973323 90.9373355,69.9866678 90.5,69.768 C90.0626645,69.5493322 89.6973348,69.2160022 89.404,68.768 C89.1106652,68.3199978 88.964,67.7866698 88.964,67.168 C88.964,66.1653283 89.2946634,65.3546698 89.956,64.736 C90.6173366,64.1173302 91.6039934,63.808 92.916,63.808 C94.1426728,63.808 95.1986622,64.0213312 96.084,64.448 L95.86,65.872 C94.8786618,65.4879981 93.9240046,65.296 92.996,65.296 C92.1533291,65.296 91.5346686,65.4613317 91.14,65.792 C90.7453314,66.1226683 90.548,66.5493307 90.548,67.072 C90.548,67.4773354 90.6946652,67.8213319 90.988,68.104 C91.2813348,68.3866681 91.6466645,68.5999993 92.084,68.744 C92.5213355,68.8880007 92.9986641,69.0613323 93.516,69.264 C94.0333359,69.4666677 94.5106645,69.6799989 94.948,69.904 C95.3853355,70.1280011 95.7506652,70.469331 96.044,70.928 C96.3373348,71.386669 96.484,71.9359968 96.484,72.576 Z M105.204,67.472 C105.85467,68.2400038 106.18,69.5039912 106.18,71.264 C106.18,73.0240088 105.857337,74.2879962 105.212,75.056 C104.566663,75.8240038 103.524007,76.208 102.084,76.208 C100.633326,76.208 99.5773366,75.8213372 98.916,75.048 C98.2546634,74.2746628 97.924,73.0133421 97.924,71.264 C97.924,69.5146579 98.25733,68.2506706 98.924,67.472 C99.59067,66.6933294 100.643993,66.304 102.084,66.304 C103.524007,66.304 104.563997,66.6933294 105.204,67.472 Z M100.068,68.416 C99.6839981,68.9600027 99.492,69.9093266 99.492,71.264 C99.492,72.6186734 99.6866647,73.5679973 100.076,74.112 C100.465335,74.6560027 101.134662,74.928 102.084,74.928 C103.012005,74.928 103.667998,74.6560027 104.052,74.112 C104.436002,73.5679973 104.628,72.6186734 104.628,71.264 C104.628,69.9093266 104.436002,68.9600027 104.052,68.416 C103.667998,67.8719973 103.012005,67.6 102.084,67.6 C101.134662,67.6 100.462669,67.8719973 100.068,68.416 Z M115.572,66.464 L115.572,72.864 C115.572,73.9413387 115.26267,74.7626638 114.644,75.328 C114.02533,75.8933362 113.09734,76.176 111.86,76.176 C110.633327,76.176 109.71067,75.8906695 109.092,75.32 C108.47333,74.7493305 108.164,73.930672 108.164,72.864 L108.164,66.464 L109.668,66.464 L109.668,72.832 C109.668,74.1333398 110.403993,74.784 111.876,74.784 C113.337341,74.784 114.068,74.1333398 114.068,72.832 L114.068,66.464 L115.572,66.464 Z M122.324,67.648 L119.972,67.648 L119.972,73.504 C119.972,74.4320046 120.435995,74.896 121.364,74.896 C121.694668,74.896 121.961332,74.8533338 122.164,74.768 L122.26,75.92 C121.939998,76.0800008 121.497336,76.16 120.932,76.16 C120.121329,76.16 119.505335,75.9386689 119.084,75.496 C118.662665,75.0533311 118.452,74.4053376 118.452,73.552 L118.452,67.648 L117.124,67.648 L117.124,66.464 L118.5,66.464 L118.788,64.096 L119.972,63.968 L119.972,66.464 L122.324,66.464 L122.324,67.648 Z M131.7,76 L130.196,76 L130.196,69.68 C130.196,68.3573267 129.476007,67.696 128.036,67.696 C127.555998,67.696 127.113335,67.799999 126.708,68.008 C126.302665,68.216001 125.998668,68.4746651 125.796,68.784 L125.796,76 L124.292,76 L124.292,63.376 L125.796,63.28 L125.796,66.048 L125.78,67.328 L125.812,67.344 C126.484003,66.6399965 127.374661,66.288 128.484,66.288 C129.518672,66.288 130.313331,66.5813304 130.868,67.168 C131.422669,67.7546696 131.7,68.5919946 131.7,69.68 L131.7,76 Z M74.324,85 L76.148,85 L78.34,94.136 L78.628,95.4 L78.676,95.4 L78.916,94.136 L80.884,85 L82.516,85 L79.62,97 L77.62,97 L75.492,87.864 L75.236,86.584 L75.188,86.584 L74.916,87.864 L72.804,97 L70.804,97 L67.892,85 L69.604,85 L71.572,94.184 L71.828,95.448 L71.876,95.448 L72.148,94.184 L74.324,85 Z M89.668,97 L89.524,95.832 L89.476,95.816 C89.1879986,96.2320021 88.7960025,96.5573322 88.3,96.792 C87.8039975,97.0266678 87.252003,97.144 86.644,97.144 C85.7373288,97.144 85.0226693,96.8933358 84.5,96.392 C83.9773307,95.8906642 83.716,95.1226718 83.716,94.088 C83.716,93.1706621 84.0066638,92.4586692 84.588,91.952 C85.1693362,91.4453308 86.0199944,91.192 87.14,91.192 C87.9080038,91.192 88.6386632,91.3146654 89.332,91.56 L89.332,90.616 C89.332,89.8799963 89.1586684,89.3573349 88.812,89.048 C88.4653316,88.7386651 87.8973373,88.584 87.108,88.584 C86.1373285,88.584 85.2466707,88.7759981 84.436,89.16 L84.292,87.896 C85.1986712,87.4799979 86.222661,87.272 87.364,87.272 C88.6120062,87.272 89.4999974,87.5493306 90.028,88.104 C90.5560026,88.6586694 90.82,89.5706603 90.82,90.84 L90.82,97 L89.668,97 Z M89.316,94.296 L89.316,92.648 C88.9213314,92.4133322 88.286671,92.296 87.412,92.296 C85.8973258,92.296 85.14,92.8879941 85.14,94.072 C85.14,95.2880061 85.7799936,95.896 87.06,95.896 C87.6466696,95.896 88.169331,95.7306683 88.628,95.4 C89.086669,95.0693317 89.316,94.7013354 89.316,94.296 Z M95.156,97 L93.636,97 L93.636,84.376 L95.156,84.28 L95.156,97 Z M102.004,97.192 C100.446659,97.192 99.3186702,96.7733375 98.62,95.936 C97.9213298,95.0986625 97.572,93.7786757 97.572,91.976 C97.572,90.4613258 97.9026634,89.304004 98.564,88.504 C99.2253366,87.703996 100.20666,87.304 101.508,87.304 C102.692006,87.304 103.614663,87.666663 104.276,88.392 C104.937337,89.117337 105.268,90.2213259 105.268,91.704 C105.268,91.9173344 105.257333,92.1626653 105.236,92.44 L99.124,92.44 C99.1666669,93.6773395 99.425331,94.5493308 99.9,95.056 C100.374669,95.5626692 101.134661,95.816 102.18,95.816 C103.076004,95.816 103.939996,95.6133354 104.772,95.208 L104.948,96.488 C104.083996,96.9573357 103.102672,97.192 102.004,97.192 Z M99.092,91.4 L103.876,91.4 C103.844,89.5439907 103.060008,88.616 101.524,88.616 C100.723996,88.616 100.132002,88.8426644 99.748,89.296 C99.3639981,89.7493356 99.1453336,90.4506619 99.092,91.4 Z M113.172,94.2 C113.172,95.1386714 112.894669,95.8719974 112.34,96.4 C111.785331,96.9280026 110.942672,97.192 109.812,97.192 C108.606661,97.192 107.63067,96.925336 106.884,96.392 L107.076,95.08 C107.812004,95.6346694 108.718661,95.912 109.796,95.912 C110.457337,95.912 110.950665,95.7706681 111.276,95.488 C111.601335,95.2053319 111.764,94.8240024 111.764,94.344 C111.764,93.9493314 111.596002,93.6293346 111.26,93.384 C110.923998,93.1386654 110.516002,92.9413341 110.036,92.792 C109.555998,92.6426659 109.078669,92.4773342 108.604,92.296 C108.129331,92.1146658 107.724002,91.8320019 107.388,91.448 C107.051998,91.0639981 106.884,90.5733363 106.884,89.976 C106.884,89.1546626 107.16933,88.5040024 107.74,88.024 C108.31067,87.5439976 109.134661,87.304 110.212,87.304 C111.140005,87.304 111.998663,87.4853315 112.788,87.848 L112.66,89.128 C111.849329,88.786665 111.022671,88.616 110.18,88.616 C109.614664,88.616 109.164002,88.7306655 108.828,88.96 C108.491998,89.1893345 108.324,89.5013314 108.324,89.896 C108.324,90.2693352 108.489332,90.5679989 108.82,90.792 C109.150668,91.0160011 109.555998,91.1999993 110.036,91.344 C110.516002,91.4880007 110.993331,91.6479991 111.468,91.824 C111.942669,92.0000009 112.345332,92.2853314 112.676,92.68 C113.006668,93.0746686 113.172,93.5813302 113.172,94.2 Z" id="New-South-Wales" fill="#FFFFFF"></path>
                </g>
                <g id="tasmania" transform="translate(507.000000, 532.000000)" fill="#465961">
                    <path d="M54.7357086,1.73277621 L53,1.73277621 L53,3.46412037 L53,5.15966337 L53,6.96117781 L53,8.69252197 L53,10.388065 L54.7357086,10.388065 L56.4368758,8.69252197 L58.138043,6.96117781 L56.4368758,5.15966337 L58.138043,3.46412037 L56.4368758,1.73277621 L54.7357086,0 L54.7357086,1.73277621 Z M124.792997,3.46412037 L123.093269,5.15966337 L123.093269,6.96117781 L124.792997,5.15966337 L124.792997,6.96117781 L124.792997,8.69252197 L126.495603,10.388065 L126.495603,12.1194091 L128.16079,12.1194091 L129.932479,12.1194091 L131.632207,10.388065 L131.632207,8.69252197 L131.632207,6.96117781 L129.932479,6.96117781 L126.495603,3.46412037 L124.792997,3.46412037 Z M131.632207,13.9223556 L129.932479,13.9223556 L128.16079,13.9223556 L126.495603,13.9223556 L126.495603,15.6178986 L128.16079,15.6178986 L129.932479,15.6178986 L131.632207,15.6178986 L133.300272,17.3478107 L135,15.6178986 L133.300272,13.9223556 L131.632207,13.9223556 Z M68.414129,15.6178986 L68.414129,17.3478107 L68.414129,19.0805869 L68.414129,17.3478107 L70.1167354,15.6178986 L68.414129,15.6178986 Z M128.16079,17.3478107 L129.932479,19.0805869 L129.932479,17.3478107 L128.16079,17.3478107 Z M68.414129,22.5790764 L66.6784204,26.0417648 L66.6784204,27.8089101 L68.414129,29.5388222 L68.414129,31.2701664 L68.414129,33.0029426 L71.8164634,38.2313442 L73.4816498,39.9626883 L76.9559456,43.4611778 L76.9559456,45.192522 L76.9559456,46.9252982 L78.6196928,46.9252982 L78.6196928,48.6910115 L82.0925494,50.4209236 L82.0925494,52.1536998 L80.3237385,52.1536998 L80.3237385,50.4209236 L76.9559456,48.6910115 L76.9559456,52.1536998 L76.9559456,53.8492428 L82.0925494,60.8089885 L83.7951558,60.8089885 L83.7951558,62.611935 L85.458903,64.3432792 L87.1615094,66.0388222 L88.9317595,67.7701664 L90.596946,67.7701664 L92.2981132,67.7701664 L94.0007196,67.7701664 L92.2981132,67.7701664 L90.596946,69.5716808 L92.2981132,71.2686558 L94.0007196,71.2686558 L97.4361562,71.2686558 L100.83993,71.2686558 L102.575638,73 L105.976534,73 L107.67914,71.2686558 L109.414849,69.5716808 L109.414849,67.7701664 L107.67914,66.0388222 L109.414849,64.3432792 L111.114577,66.0388222 L112.817183,66.0388222 L112.817183,64.3432792 L112.817183,62.611935 L114.51835,62.611935 L114.51835,60.8089885 L114.51835,59.0790764 L116.254059,60.8089885 L116.254059,62.611935 L117.953787,62.611935 L117.953787,60.8089885 L117.953787,59.0790764 L119.656393,59.0790764 L121.35756,59.0790764 L123.093269,60.8089885 L123.093269,62.611935 L121.35756,62.611935 L119.656393,62.611935 L121.35756,64.3432792 L123.093269,66.0388222 L124.792997,66.0388222 L126.495603,64.3432792 L126.495603,60.8089885 L124.792997,59.0790764 L124.792997,55.6507572 L124.792997,53.8492428 L126.495603,53.8492428 L126.495603,52.1536998 L126.495603,50.4209236 L126.495603,48.6910115 L128.16079,46.9252982 L128.16079,45.192522 L129.932479,45.192522 L128.16079,45.192522 L129.932479,43.4611778 L129.932479,45.192522 L131.632207,45.192522 L131.632207,43.4611778 L131.632207,39.9626883 L131.632207,38.2313442 L131.632207,36.498568 L131.632207,34.7686558 L131.632207,33.0029426 L131.632207,29.5388222 L131.632207,27.8089101 L131.632207,24.3104206 L129.932479,22.5790764 L126.495603,22.5790764 L124.792997,24.3104206 L123.093269,24.3104206 L119.656393,22.5790764 L119.656393,24.3104206 L117.953787,26.0417648 L116.254059,26.0417648 L114.51835,24.3104206 L112.817183,24.3104206 L112.817183,26.0417648 L111.114577,26.0417648 L107.67914,26.0417648 L105.976534,26.0417648 L105.976534,27.8089101 L105.976534,29.5388222 L104.275366,27.8089101 L102.575638,27.8089101 L100.83993,27.8089101 L95.7364283,29.5388222 L92.2981132,27.8089101 L87.1615094,26.0417648 L85.458903,24.3104206 L83.7951558,24.3104206 L82.0925494,22.5790764 L80.3237385,22.5790764 L78.6196928,22.5790764 L78.6196928,20.8821014 L76.9559456,20.8821014 L75.2533392,22.5790764 L73.4816498,22.5790764 L70.1167354,20.8821014 L68.414129,19.0805869 L68.414129,22.5790764 Z M131.632207,45.192522 L131.632207,46.9252982 L131.632207,48.6910115 L133.300272,48.6910115 L131.632207,46.9252982 L133.300272,45.192522 L131.632207,45.192522 Z M126.495603,55.6507572 L126.495603,57.3821014 L128.16079,57.3821014 L128.16079,55.6507572 L128.16079,53.8492428 L126.495603,55.6507572 Z M114.51835,66.0388222 L116.254059,66.0388222 L116.254059,64.3432792 L114.51835,64.3432792 L114.51835,66.0388222 Z M112.817183,67.7701664 L112.817183,69.5716808 L111.114577,69.5716808 L111.114577,71.2686558 L112.817183,71.2686558 L114.51835,71.2686558 L114.51835,69.5716808 L114.51835,67.7701664 L112.817183,67.7701664 Z" id="Fill-3" opacity="0.393856957"></path>
                    <path d="M8.9225,41.19 L5.5775,41.19 L5.5775,51 L4.0175,51 L4.0175,41.19 L0.6725,41.19 L0.7175,39.75 L8.8925,39.75 L8.9225,41.19 Z M14.9525,51 L14.8175,49.905 L14.7725,49.89 C14.5024987,50.2800019 14.1350023,50.5849989 13.67,50.805 C13.2049977,51.0250011 12.6875029,51.135 12.1175,51.135 C11.2674958,51.135 10.5975025,50.9000024 10.1075,50.43 C9.61749755,49.9599976 9.3725,49.2400048 9.3725,48.27 C9.3725,47.4099957 9.64499728,46.7425024 10.19,46.2675 C10.7350027,45.7924976 11.5324948,45.555 12.5825,45.555 C13.3025036,45.555 13.9874968,45.6699988 14.6375,45.9 L14.6375,45.015 C14.6375,44.3249966 14.4750016,43.8350015 14.15,43.545 C13.8249984,43.2549985 13.2925037,43.11 12.5525,43.11 C11.6424955,43.11 10.8075038,43.2899982 10.0475,43.65 L9.9125,42.465 C10.7625043,42.0749981 11.7224947,41.88 12.7925,41.88 C13.9625059,41.88 14.7949975,42.1399974 15.29,42.66 C15.7850025,43.1800026 16.0325,44.0349941 16.0325,45.225 L16.0325,51 L14.9525,51 Z M14.6225,48.465 L14.6225,46.92 C14.2524982,46.6999989 13.6575041,46.59 12.8375,46.59 C11.4174929,46.59 10.7075,47.1449944 10.7075,48.255 C10.7075,49.3950057 11.307494,49.965 12.5075,49.965 C13.0575028,49.965 13.5474979,49.8100015 13.9775,49.5 C14.4075022,49.1899985 14.6225,48.8450019 14.6225,48.465 Z M23.8775,48.375 C23.8775,49.2550044 23.6175026,49.9424975 23.0975,50.4375 C22.5774974,50.9325025 21.7875053,51.18 20.7275,51.18 C19.5974944,51.18 18.6825035,50.9300025 17.9825,50.43 L18.1625,49.2 C18.8525035,49.7200026 19.702495,49.98 20.7125,49.98 C21.3325031,49.98 21.7949985,49.8475013 22.1,49.5825 C22.4050015,49.3174987 22.5575,48.9600023 22.5575,48.51 C22.5575,48.1399981 22.4000016,47.8400011 22.085,47.61 C21.7699984,47.3799988 21.3875023,47.1950007 20.9375,47.055 C20.4874978,46.9149993 20.0400022,46.7600008 19.595,46.59 C19.1499978,46.4199992 18.7700016,46.1550018 18.455,45.795 C18.1399984,45.4349982 17.9825,44.9750028 17.9825,44.415 C17.9825,43.6449961 18.2499973,43.0350023 18.785,42.585 C19.3200027,42.1349977 20.092495,41.91 21.1025,41.91 C21.9725044,41.91 22.7774963,42.0799983 23.5175,42.42 L23.3975,43.62 C22.6374962,43.2999984 21.862504,43.14 21.0725,43.14 C20.5424974,43.14 20.1200016,43.2474989 19.805,43.4625 C19.4899984,43.6775011 19.3325,43.9699982 19.3325,44.34 C19.3325,44.6900018 19.4874985,44.969999 19.7975,45.18 C20.1075016,45.3900011 20.4874978,45.5624993 20.9375,45.6975 C21.3875023,45.8325007 21.8349978,45.9824992 22.28,46.1475 C22.7250022,46.3125008 23.1024985,46.5799982 23.4125,46.95 C23.7225016,47.3200018 23.8775,47.7949971 23.8775,48.375 Z M37.2875,51 L35.8775,51 L35.8775,45.06 C35.8775,43.8399939 35.2575062,43.23 34.0175,43.23 C33.5074974,43.23 33.0850017,43.3749986 32.75,43.665 C32.4149983,43.9550014 32.2475,44.3699973 32.2475,44.91 L32.2475,51 L30.8375,51 L30.8375,44.91 C30.8375,44.3299971 30.6775016,43.9025014 30.3575,43.6275 C30.0374984,43.3524986 29.6125027,43.215 29.0825,43.215 C28.7024981,43.215 28.3400017,43.3074991 27.995,43.4925 C27.6499983,43.6775009 27.3875009,43.9199985 27.2075,44.22 L27.2075,51 L25.7825,51 L25.7825,42.09 L26.8025,42.015 L27.0575,42.975 L27.1025,42.975 C27.6725029,42.2749965 28.4424952,41.925 29.4125,41.925 C30.602506,41.925 31.4074979,42.3799954 31.8275,43.29 L31.8575,43.29 C32.3575025,42.3699954 33.1974941,41.91 34.3775,41.91 C35.2675044,41.91 35.9749974,42.1749973 36.5,42.705 C37.0250026,43.2350026 37.2875,44.0149949 37.2875,45.045 L37.2875,51 Z M44.8025,51 L44.6675,49.905 L44.6225,49.89 C44.3524987,50.2800019 43.9850023,50.5849989 43.52,50.805 C43.0549977,51.0250011 42.5375028,51.135 41.9675,51.135 C41.1174958,51.135 40.4475025,50.9000024 39.9575,50.43 C39.4674976,49.9599976 39.2225,49.2400048 39.2225,48.27 C39.2225,47.4099957 39.4949973,46.7425024 40.04,46.2675 C40.5850027,45.7924976 41.3824947,45.555 42.4325,45.555 C43.1525036,45.555 43.8374967,45.6699988 44.4875,45.9 L44.4875,45.015 C44.4875,44.3249966 44.3250016,43.8350015 44,43.545 C43.6749984,43.2549985 43.1425037,43.11 42.4025,43.11 C41.4924954,43.11 40.6575038,43.2899982 39.8975,43.65 L39.7625,42.465 C40.6125043,42.0749981 41.5724946,41.88 42.6425,41.88 C43.8125059,41.88 44.6449975,42.1399974 45.14,42.66 C45.6350025,43.1800026 45.8825,44.0349941 45.8825,45.225 L45.8825,51 L44.8025,51 Z M44.4725,48.465 L44.4725,46.92 C44.1024982,46.6999989 43.5075041,46.59 42.6875,46.59 C41.2674929,46.59 40.5575,47.1449944 40.5575,48.255 C40.5575,49.3950057 41.157494,49.965 42.3575,49.965 C42.9075028,49.965 43.3974979,49.8100015 43.8275,49.5 C44.2575022,49.1899985 44.4725,48.8450019 44.4725,48.465 Z M55.1825,51 L53.7725,51 L53.7725,45.09 C53.7725,43.8399937 53.0975068,43.215 51.7475,43.215 C51.347498,43.215 50.950002,43.3049991 50.555,43.485 C50.159998,43.6650009 49.862501,43.9099985 49.6625,44.22 L49.6625,51 L48.2375,51 L48.2375,42.09 L49.2575,42.015 L49.4975,42.96 L49.5425,42.96 C50.1925033,42.2499964 51.0574946,41.895 52.1375,41.895 C53.0975048,41.895 53.8449973,42.1649973 54.38,42.705 C54.9150027,43.2450027 55.1825,44.0399948 55.1825,45.09 L55.1825,51 Z M59.3375,51 L57.9125,51 L57.9125,42.105 L59.3375,42.03 L59.3375,51 Z M58.6325,39.03 C59.242503,39.03 59.5475,39.2849974 59.5475,39.795 C59.5475,40.3050025 59.242503,40.56 58.6325,40.56 C58.3124984,40.56 58.0800007,40.5025006 57.935,40.3875 C57.7899993,40.2724994 57.7175,40.0750014 57.7175,39.795 C57.7175,39.2849974 58.0224969,39.03 58.6325,39.03 Z M67.3775,51 L67.2425,49.905 L67.1975,49.89 C66.9274987,50.2800019 66.5600023,50.5849989 66.095,50.805 C65.6299977,51.0250011 65.1125029,51.135 64.5425,51.135 C63.6924957,51.135 63.0225025,50.9000024 62.5325,50.43 C62.0424976,49.9599976 61.7975,49.2400048 61.7975,48.27 C61.7975,47.4099957 62.0699973,46.7425024 62.615,46.2675 C63.1600027,45.7924976 63.9574948,45.555 65.0075,45.555 C65.7275036,45.555 66.4124968,45.6699988 67.0625,45.9 L67.0625,45.015 C67.0625,44.3249966 66.9000016,43.8350015 66.575,43.545 C66.2499984,43.2549985 65.7175037,43.11 64.9775,43.11 C64.0674954,43.11 63.2325038,43.2899982 62.4725,43.65 L62.3375,42.465 C63.1875043,42.0749981 64.1474946,41.88 65.2175,41.88 C66.3875059,41.88 67.2199975,42.1399974 67.715,42.66 C68.2100025,43.1800026 68.4575,44.0349941 68.4575,45.225 L68.4575,51 L67.3775,51 Z M67.0475,48.465 L67.0475,46.92 C66.6774981,46.6999989 66.0825041,46.59 65.2625,46.59 C63.8424929,46.59 63.1325,47.1449944 63.1325,48.255 C63.1325,49.3950057 63.732494,49.965 64.9325,49.965 C65.4825027,49.965 65.9724978,49.8100015 66.4025,49.5 C66.8325021,49.1899985 67.0475,48.8450019 67.0475,48.465 Z" id="Tasmania"></path>
                </g>
                <g id="victoria" transform="translate(509.000000, 436.000000)">
                    <path d="M77.8788758,80.9284351 L76.1908891,79.2137405 L74.4669572,80.9284351 L77.8788758,80.9284351 Z M129.868579,49.8936069 L128.074194,49.8936069 L129.868579,48.2146947 L129.868579,46.5 L128.074194,44.7853053 L126.386208,39.6068702 L126.386208,36.1431298 L124.662276,36.1431298 L121.179905,34.4298664 L119.457411,36.1431298 L117.733479,36.1431298 L117.733479,34.4298664 L116.009547,34.4298664 L114.251107,36.1431298 L112.527175,36.1431298 L110.803244,36.1431298 L109.079312,37.8936069 L105.59694,37.8936069 L103.873009,36.1431298 L100.390637,36.1431298 L98.6681432,36.1431298 L96.9442113,36.1431298 L93.46184,36.1431298 L91.7393459,36.1431298 L86.5330428,36.1431298 L84.8076731,34.4298664 L83.1211242,32.7137405 L79.6028077,32.7137405 L76.1908891,32.7137405 L74.4669572,32.7137405 L72.6725727,34.4298664 L70.984586,34.4298664 L70.984586,36.1431298 L70.984586,37.8936069 L69.2606541,37.8936069 L65.7782828,37.8936069 L64.0557887,36.1431298 L62.3318568,34.4298664 L60.6079249,32.7137405 L58.8494856,30.9990458 L57.1241159,29.2514313 L53.6776899,27.5353053 L48.4728245,25.822042 L46.7488926,24.1073473 L46.7488926,22.3568702 L44.9890155,22.3568702 L44.9890155,20.6436069 L43.2665214,20.6436069 L43.2665214,18.9289122 L43.2665214,15.4651718 L41.5425895,13.7504771 L39.8186576,13.7504771 L36.3362863,12.0357824 L32.9243677,12.0357824 L32.9243677,10.3554389 L31.1299832,10.3554389 L31.1299832,12.0357824 L29.4060513,13.7504771 L27.7180646,13.7504771 L27.7180646,12.0357824 L25.9941327,10.3554389 L24.201186,8.57204198 L25.9941327,6.85734733 L24.201186,5.17843511 L22.4772541,5.17843511 L22.4772541,3.46374046 L20.7892673,3.46374046 L17.2709509,1.68034351 L13.8590323,1.68034351 L12.1351004,1.68034351 L10.3766611,3.46374046 L8.65416696,3.46374046 L5.20630314,1.68034351 L3.44642602,1.68034351 L1.72393191,1.68034351 L0,0 L0,72.3206107 L3.44642602,74.0367366 L6.92879724,77.4646947 L8.65416696,79.2137405 L10.3766611,79.2137405 L13.8590323,75.75 L17.2709509,77.4646947 L20.7892673,79.2137405 L24.201186,77.4646947 L25.9941327,79.2137405 L29.4060513,79.2137405 L32.9243677,82.6431298 L38.0602183,82.6431298 L39.8186576,84.3578244 L41.5425895,86.1068702 L44.9890155,86.1068702 L48.4728245,86.1068702 L50.1953186,84.3578244 L55.4016218,79.2137405 L60.6079249,77.4646947 L62.3318568,77.4646947 L64.0557887,77.4646947 L65.7782828,75.75 L64.0557887,74.0367366 L60.6079249,74.0367366 L62.3318568,74.0367366 L64.0557887,72.3206107 L70.984586,70.5715649 L72.6725727,70.5715649 L72.6725727,72.3206107 L74.4669572,74.0367366 L72.6725727,75.75 L70.984586,77.4646947 L67.53816,77.4646947 L69.2606541,79.2137405 L70.984586,80.9284351 L76.1908891,79.2137405 L76.1908891,77.4646947 L77.8788758,75.75 L79.6028077,75.75 L81.3957544,75.75 L81.3957544,77.4646947 L81.3957544,79.2137405 L79.6028077,80.9284351 L81.3957544,82.6431298 L83.1211242,82.6431298 L84.8076731,82.6431298 L86.5330428,84.3578244 L88.3274273,86.1068702 L88.3274273,87.8201336 L90.0139762,87.8201336 L91.7393459,86.1068702 L93.46184,87.8201336 L95.2217172,89.5362595 L96.9442113,91.2495229 L96.9442113,93 L98.6681432,91.2495229 L98.6681432,89.5362595 L98.6681432,86.1068702 L96.9442113,87.8201336 L95.2217172,86.1068702 L93.46184,86.1068702 L93.46184,84.3578244 L95.2217172,84.3578244 L96.9442113,84.3578244 L98.6681432,84.3578244 L105.59694,84.3578244 L116.009547,75.75 L119.457411,72.3206107 L124.662276,70.5715649 L128.074194,68.8568702 L131.591073,68.8568702 L143.727611,67.1421756 L148.863462,68.8568702 L152.345833,67.1421756 L154.069765,67.1421756 L157.552136,65.4632634 L159.27463,63.6784351 L161,63.6784351 L161,61.9651718 L129.868579,49.8936069 Z M81.3957544,77.4646947 L79.6028077,77.4646947 L77.8788758,77.4646947 L77.8788758,79.2137405 L81.3957544,77.4646947 Z" id="Fill-6" fill="#465961" opacity="0.393856957"></path>
                    <path d="M39.416,47 L41.144,47 L36.872,59 L35,59 L30.728,47 L32.552,47 L35.576,56.2 L35.96,57.432 L36.008,57.432 L36.376,56.2 L39.416,47 Z M44.728,59 L43.208,59 L43.208,49.512 L44.728,49.432 L44.728,59 Z M43.976,46.232 C44.6266699,46.232 44.952,46.5039973 44.952,47.048 C44.952,47.5920027 44.6266699,47.864 43.976,47.864 C43.634665,47.864 43.3866674,47.8026673 43.232,47.68 C43.0773326,47.5573327 43,47.3466682 43,47.048 C43,46.5039973 43.3253301,46.232 43.976,46.232 Z M53.688,49.784 L53.592,51.144 C52.9626635,50.8559986 52.3173366,50.712 51.656,50.712 C50.6319949,50.712 49.9040022,50.978664 49.472,51.512 C49.0399978,52.045336 48.824,52.9306605 48.824,54.168 C48.824,55.4800066 49.0559977,56.4213305 49.52,56.992 C49.9840023,57.5626695 50.6853286,57.848 51.624,57.848 C52.3813371,57.848 53.0586637,57.6666685 53.656,57.304 L53.768,58.552 C53.1279968,58.9893355 52.3066717,59.208 51.304,59.208 C49.9493266,59.208 48.9360034,58.8000041 48.264,57.984 C47.5919966,57.1679959 47.256,55.8960086 47.256,54.168 C47.256,52.5359918 47.5866634,51.320004 48.248,50.52 C48.9093366,49.719996 49.943993,49.32 51.352,49.32 C52.1946709,49.32 52.9733298,49.4746651 53.688,49.784 Z M60.104,50.648 L57.752,50.648 L57.752,56.504 C57.752,57.4320046 58.2159954,57.896 59.144,57.896 C59.4746683,57.896 59.7413323,57.8533338 59.944,57.768 L60.04,58.92 C59.7199984,59.0800008 59.2773362,59.16 58.712,59.16 C57.9013293,59.16 57.2853354,58.9386689 56.864,58.496 C56.4426646,58.0533311 56.232,57.4053376 56.232,56.552 L56.232,50.648 L54.904,50.648 L54.904,49.464 L56.28,49.464 L56.568,47.096 L57.752,46.968 L57.752,49.464 L60.104,49.464 L60.104,50.648 Z M68.552,50.472 C69.2026699,51.2400038 69.528,52.5039912 69.528,54.264 C69.528,56.0240088 69.2053366,57.2879962 68.56,58.056 C67.9146634,58.8240038 66.8720072,59.208 65.432,59.208 C63.9813261,59.208 62.9253366,58.8213372 62.264,58.048 C61.6026634,57.2746628 61.272,56.0133421 61.272,54.264 C61.272,52.5146579 61.60533,51.2506706 62.272,50.472 C62.93867,49.6933294 63.9919928,49.304 65.432,49.304 C66.8720072,49.304 67.9119968,49.6933294 68.552,50.472 Z M63.416,51.416 C63.0319981,51.9600027 62.84,52.9093266 62.84,54.264 C62.84,55.6186734 63.0346647,56.5679973 63.424,57.112 C63.8133353,57.6560027 64.4826619,57.928 65.432,57.928 C66.3600046,57.928 67.0159981,57.6560027 67.4,57.112 C67.7840019,56.5679973 67.976,55.6186734 67.976,54.264 C67.976,52.9093266 67.7840019,51.9600027 67.4,51.416 C67.0159981,50.8719973 66.3600046,50.6 65.432,50.6 C64.4826619,50.6 63.8106686,50.8719973 63.416,51.416 Z M73.176,59 L71.656,59 L71.656,49.528 L72.872,49.448 L73,51.496 L73.032,51.496 C73.3306682,50.8026632 73.7333308,50.2666686 74.24,49.888 C74.7466692,49.5093314 75.3199968,49.32 75.96,49.32 C76.3120018,49.32 76.6266653,49.3626662 76.904,49.448 L76.808,50.984 C76.5519987,50.8986662 76.2373352,50.856 75.864,50.856 C75.0959962,50.856 74.4560026,51.1573303 73.944,51.76 C73.4319974,52.3626697 73.176,53.1653283 73.176,54.168 L73.176,59 Z M80.696,59 L79.176,59 L79.176,49.512 L80.696,49.432 L80.696,59 Z M79.944,46.232 C80.5946699,46.232 80.92,46.5039973 80.92,47.048 C80.92,47.5920027 80.5946699,47.864 79.944,47.864 C79.602665,47.864 79.3546674,47.8026673 79.2,47.68 C79.0453326,47.5573327 78.968,47.3466682 78.968,47.048 C78.968,46.5039973 79.2933301,46.232 79.944,46.232 Z M89.272,59 L89.128,57.832 L89.08,57.816 C88.7919986,58.2320021 88.4000025,58.5573322 87.904,58.792 C87.4079975,59.0266678 86.856003,59.144 86.248,59.144 C85.3413288,59.144 84.6266693,58.8933358 84.104,58.392 C83.5813307,57.8906642 83.32,57.1226718 83.32,56.088 C83.32,55.1706621 83.6106638,54.4586692 84.192,53.952 C84.7733362,53.4453308 85.6239944,53.192 86.744,53.192 C87.5120038,53.192 88.2426632,53.3146654 88.936,53.56 L88.936,52.616 C88.936,51.8799963 88.7626684,51.3573349 88.416,51.048 C88.0693316,50.7386651 87.5013373,50.584 86.712,50.584 C85.7413285,50.584 84.8506707,50.7759981 84.04,51.16 L83.896,49.896 C84.8026712,49.4799979 85.826661,49.272 86.968,49.272 C88.2160062,49.272 89.1039974,49.5493306 89.632,50.104 C90.1600026,50.6586694 90.424,51.5706603 90.424,52.84 L90.424,59 L89.272,59 Z M88.92,56.296 L88.92,54.648 C88.5253314,54.4133322 87.890671,54.296 87.016,54.296 C85.5013258,54.296 84.744,54.8879941 84.744,56.072 C84.744,57.2880061 85.3839936,57.896 86.664,57.896 C87.2506696,57.896 87.773331,57.7306683 88.232,57.4 C88.690669,57.0693317 88.92,56.7013354 88.92,56.296 Z" id="Victoria" fill="#FFFFFF"></path>
                </g>
                <g id="south" transform="translate(292.000000, 290.000000)">
                    <path d="M159.956926,173.733189 L158.243819,173.733189 L154.784632,173.733189 L154.784632,171.985664 L153.071525,171.985664 L149.610904,171.985664 L144.510288,171.985664 L137.624887,173.733189 L135.842968,175.444874 L135.842968,177.157993 L139.302155,178.869678 L141.015262,178.869678 L144.510288,178.869678 L146.187557,178.869678 L147.899231,178.869678 L149.610904,178.869678 L151.359851,180.617203 L154.784632,178.869678 L154.784632,177.157993 L158.243819,175.444874 L161.6686,177.157993 L163.381708,175.444874 L161.6686,173.733189 L159.956926,173.733189 Z M215,53.3217203 L215,0 L0,0 L0,101.472545 L3.4247813,101.472545 L10.3087494,99.7594266 L20.6547714,99.7594266 L32.6407892,99.7594266 L34.4241412,99.7594266 L36.1014096,98.082147 L37.8130834,98.082147 L41.2737038,98.082147 L42.9853777,98.082147 L48.1576719,101.472545 L56.7547474,106.643441 L60.1795287,106.643441 L65.351823,106.643441 L67.0649304,106.643441 L75.697845,110.068245 L79.0867872,110.068245 L80.7998946,110.068245 L84.2590815,110.068245 L85.9721889,111.815769 L87.6838628,113.527455 L94.5692644,116.952259 L94.5692644,118.69835 L92.856157,120.411469 L91.1444831,120.411469 L92.856157,123.834839 L94.5692644,127.294049 L99.7415586,129.007168 L103.200745,129.007168 L103.200745,130.718853 L104.913853,132.466378 L104.913853,135.891182 L108.338634,139.350392 L110.086147,141.062077 L111.797821,142.773762 L113.510928,144.451042 L113.510928,146.232972 L113.510928,149.623371 L115.222602,153.116986 L113.510928,153.116986 L111.797821,151.335056 L110.086147,151.335056 L110.086147,153.116986 L111.797821,153.116986 L113.510928,154.794266 L115.222602,154.794266 L116.971549,156.505951 L118.683223,159.965161 L120.394897,158.21907 L122.072165,158.21907 L123.854083,159.965161 L125.568624,159.965161 L123.854083,156.505951 L123.854083,154.794266 L123.854083,153.116986 L125.568624,153.116986 L127.280298,149.623371 L132.451159,142.773762 L134.129861,142.773762 L137.624887,141.062077 L139.302155,139.350392 L142.726936,137.567028 L144.510288,137.567028 L146.187557,137.567028 L147.899231,135.891182 L149.610904,132.466378 L151.359851,129.007168 L153.071525,125.582364 L154.784632,123.834839 L158.243819,122.123154 L158.243819,118.69835 L158.243819,116.952259 L158.243819,118.69835 L159.956926,120.411469 L161.6686,127.294049 L159.956926,127.294049 L158.243819,129.007168 L158.243819,130.718853 L159.956926,132.466378 L159.956926,135.891182 L156.496306,137.567028 L154.784632,139.350392 L151.359851,146.232972 L151.359851,147.946091 L151.359851,149.623371 L151.359851,151.335056 L151.359851,153.116986 L151.359851,156.505951 L149.610904,158.21907 L147.899231,158.21907 L146.187557,159.965161 L144.510288,158.21907 L141.015262,165.10165 L142.726936,165.10165 L144.510288,165.10165 L146.187557,165.10165 L147.899231,163.389965 L151.359851,163.389965 L153.071525,163.389965 L156.496306,163.389965 L158.243819,156.505951 L159.956926,151.335056 L161.6686,147.946091 L163.381708,146.232972 L165.127787,147.946091 L166.840895,151.335056 L168.554002,154.794266 L170.265676,156.505951 L170.265676,161.67828 L168.554002,166.849175 L166.840895,168.562294 L165.127787,168.562294 L165.127787,171.985664 L168.554002,171.985664 L170.265676,171.985664 L173.724863,170.273979 L175.43797,170.273979 L177.116672,170.273979 L177.116672,168.562294 L178.89859,168.562294 L180.610264,166.849175 L182.323372,166.849175 L183.999207,166.849175 L183.999207,168.562294 L185.783992,168.562294 L183.999207,168.562294 L183.999207,171.985664 L182.323372,170.273979 L180.610264,170.273979 L180.610264,171.985664 L178.89859,170.273979 L178.89859,171.985664 L180.610264,173.733189 L183.999207,175.444874 L187.495666,178.869678 L189.172934,180.617203 L192.666527,185.753692 L194.345229,190.924587 L194.345229,192.601867 L192.666527,194.383797 L192.666527,197.774196 L192.666527,199.485881 L192.666527,201.267811 L194.345229,202.979497 L201.229197,208.151825 L204.655412,213.252475 L208.114598,215 L215,215 L215,142.773762 L215,53.3217203 Z" id="Fill-10" fill="#465961" opacity="0.393856957"></path>
                    <path d="M98.016,48.576 C98.016,49.717339 97.6613369,50.6106634 96.952,51.256 C96.2426631,51.9013366 95.2320066,52.224 93.92,52.224 C92.6186602,52.224 91.4453386,51.920003 90.4,51.312 L90.656,49.824 C91.6586717,50.432003 92.7413275,50.736 93.904,50.736 C94.7360042,50.736 95.3653312,50.5573351 95.792,50.2 C96.2186688,49.8426649 96.432,49.3386699 96.432,48.688 C96.432,48.2719979 96.2853348,47.9146682 95.992,47.616 C95.6986652,47.3173318 95.3333355,47.0906674 94.896,46.936 C94.4586645,46.7813326 93.9813359,46.6026677 93.464,46.4 C92.9466641,46.1973323 92.4693355,45.9866678 92.032,45.768 C91.5946645,45.5493322 91.2293348,45.2160022 90.936,44.768 C90.6426652,44.3199978 90.496,43.7866698 90.496,43.168 C90.496,42.1653283 90.8266634,41.3546698 91.488,40.736 C92.1493366,40.1173302 93.1359934,39.808 94.448,39.808 C95.6746728,39.808 96.7306622,40.0213312 97.616,40.448 L97.392,41.872 C96.4106618,41.4879981 95.4560046,41.296 94.528,41.296 C93.6853291,41.296 93.0666686,41.4613317 92.672,41.792 C92.2773314,42.1226683 92.08,42.5493307 92.08,43.072 C92.08,43.4773354 92.2266652,43.8213319 92.52,44.104 C92.8133348,44.3866681 93.1786645,44.5999993 93.616,44.744 C94.0533355,44.8880007 94.5306641,45.0613323 95.048,45.264 C95.5653359,45.4666677 96.0426645,45.6799989 96.48,45.904 C96.9173355,46.1280011 97.2826652,46.469331 97.576,46.928 C97.8693348,47.386669 98.016,47.9359968 98.016,48.576 Z M106.736,43.472 C107.38667,44.2400038 107.712,45.5039912 107.712,47.264 C107.712,49.0240088 107.389337,50.2879962 106.744,51.056 C106.098663,51.8240038 105.056007,52.208 103.616,52.208 C102.165326,52.208 101.109337,51.8213372 100.448,51.048 C99.7866634,50.2746628 99.456,49.0133421 99.456,47.264 C99.456,45.5146579 99.78933,44.2506706 100.456,43.472 C101.12267,42.6933294 102.175993,42.304 103.616,42.304 C105.056007,42.304 106.095997,42.6933294 106.736,43.472 Z M101.6,44.416 C101.215998,44.9600027 101.024,45.9093266 101.024,47.264 C101.024,48.6186734 101.218665,49.5679973 101.608,50.112 C101.997335,50.6560027 102.666662,50.928 103.616,50.928 C104.544005,50.928 105.199998,50.6560027 105.584,50.112 C105.968002,49.5679973 106.16,48.6186734 106.16,47.264 C106.16,45.9093266 105.968002,44.9600027 105.584,44.416 C105.199998,43.8719973 104.544005,43.6 103.616,43.6 C102.666662,43.6 101.994669,43.8719973 101.6,44.416 Z M117.104,42.464 L117.104,48.864 C117.104,49.9413387 116.79467,50.7626638 116.176,51.328 C115.55733,51.8933362 114.62934,52.176 113.392,52.176 C112.165327,52.176 111.24267,51.8906695 110.624,51.32 C110.00533,50.7493305 109.696,49.930672 109.696,48.864 L109.696,42.464 L111.2,42.464 L111.2,48.832 C111.2,50.1333398 111.935993,50.784 113.408,50.784 C114.869341,50.784 115.6,50.1333398 115.6,48.832 L115.6,42.464 L117.104,42.464 Z M123.856,43.648 L121.504,43.648 L121.504,49.504 C121.504,50.4320046 121.967995,50.896 122.896,50.896 C123.226668,50.896 123.493332,50.8533338 123.696,50.768 L123.792,51.92 C123.471998,52.0800008 123.029336,52.16 122.464,52.16 C121.653329,52.16 121.037335,51.9386689 120.616,51.496 C120.194665,51.0533311 119.984,50.4053376 119.984,49.552 L119.984,43.648 L118.656,43.648 L118.656,42.464 L120.032,42.464 L120.32,40.096 L121.504,39.968 L121.504,42.464 L123.856,42.464 L123.856,43.648 Z M133.232,52 L131.728,52 L131.728,45.68 C131.728,44.3573267 131.008007,43.696 129.568,43.696 C129.087998,43.696 128.645335,43.799999 128.24,44.008 C127.834665,44.216001 127.530668,44.4746651 127.328,44.784 L127.328,52 L125.824,52 L125.824,39.376 L127.328,39.28 L127.328,42.048 L127.312,43.328 L127.344,43.344 C128.016003,42.6399965 128.906661,42.288 130.016,42.288 C131.050672,42.288 131.845331,42.5813304 132.4,43.168 C132.954669,43.7546696 133.232,44.5919946 133.232,45.68 L133.232,52 Z M86.328,73 L85.368,70.136 L80.088,70.136 L79.128,73 L77.368,73 L81.784,61 L83.736,61 L88.168,73 L86.328,73 Z M82.744,62.2 L82.344,63.448 L80.568,68.712 L84.904,68.712 L83.16,63.448 L82.792,62.2 L82.744,62.2 Z M96.84,63.464 L96.84,69.864 C96.84,70.9413387 96.5306698,71.7626638 95.912,72.328 C95.2933302,72.8933362 94.3653395,73.176 93.128,73.176 C91.9013272,73.176 90.9786698,72.8906695 90.36,72.32 C89.7413302,71.7493305 89.432,70.930672 89.432,69.864 L89.432,63.464 L90.936,63.464 L90.936,69.832 C90.936,71.1333398 91.6719926,71.784 93.144,71.784 C94.6053406,71.784 95.336,71.1333398 95.336,69.832 L95.336,63.464 L96.84,63.464 Z M105.208,70.2 C105.208,71.1386714 104.930669,71.8719974 104.376,72.4 C103.821331,72.9280026 102.978672,73.192 101.848,73.192 C100.642661,73.192 99.6666704,72.925336 98.92,72.392 L99.112,71.08 C99.8480037,71.6346694 100.754661,71.912 101.832,71.912 C102.493337,71.912 102.986665,71.7706681 103.312,71.488 C103.637335,71.2053319 103.8,70.8240024 103.8,70.344 C103.8,69.9493314 103.632002,69.6293346 103.296,69.384 C102.959998,69.1386654 102.552002,68.9413341 102.072,68.792 C101.591998,68.6426659 101.114669,68.4773342 100.64,68.296 C100.165331,68.1146658 99.7600017,67.8320019 99.424,67.448 C99.0879983,67.0639981 98.92,66.5733363 98.92,65.976 C98.92,65.1546626 99.2053305,64.5040024 99.776,64.024 C100.34667,63.5439976 101.170661,63.304 102.248,63.304 C103.176005,63.304 104.034663,63.4853315 104.824,63.848 L104.696,65.128 C103.885329,64.786665 103.058671,64.616 102.216,64.616 C101.650664,64.616 101.200002,64.7306655 100.864,64.96 C100.527998,65.1893345 100.36,65.5013314 100.36,65.896 C100.36,66.2693352 100.525332,66.5679989 100.856,66.792 C101.186668,67.0160011 101.591998,67.1999993 102.072,67.344 C102.552002,67.4880007 103.029331,67.6479991 103.504,67.824 C103.978669,68.0000009 104.381332,68.2853314 104.712,68.68 C105.042668,69.0746686 105.208,69.5813302 105.208,70.2 Z M111.432,64.648 L109.08,64.648 L109.08,70.504 C109.08,71.4320046 109.543995,71.896 110.472,71.896 C110.802668,71.896 111.069332,71.8533338 111.272,71.768 L111.368,72.92 C111.047998,73.0800008 110.605336,73.16 110.04,73.16 C109.229329,73.16 108.613335,72.9386689 108.192,72.496 C107.770665,72.0533311 107.56,71.4053376 107.56,70.552 L107.56,64.648 L106.232,64.648 L106.232,63.464 L107.608,63.464 L107.896,61.096 L109.08,60.968 L109.08,63.464 L111.432,63.464 L111.432,64.648 Z M114.824,73 L113.304,73 L113.304,63.528 L114.52,63.448 L114.648,65.496 L114.68,65.496 C114.978668,64.8026632 115.381331,64.2666686 115.888,63.888 C116.394669,63.5093314 116.967997,63.32 117.608,63.32 C117.960002,63.32 118.274665,63.3626662 118.552,63.448 L118.456,64.984 C118.199999,64.8986662 117.885335,64.856 117.512,64.856 C116.743996,64.856 116.104003,65.1573303 115.592,65.76 C115.079997,66.3626697 114.824,67.1653283 114.824,68.168 L114.824,73 Z M125.64,73 L125.496,71.832 L125.448,71.816 C125.159999,72.2320021 124.768002,72.5573322 124.272,72.792 C123.775998,73.0266678 123.224003,73.144 122.616,73.144 C121.709329,73.144 120.994669,72.8933358 120.472,72.392 C119.949331,71.8906642 119.688,71.1226718 119.688,70.088 C119.688,69.1706621 119.978664,68.4586692 120.56,67.952 C121.141336,67.4453308 121.991994,67.192 123.112,67.192 C123.880004,67.192 124.610663,67.3146654 125.304,67.56 L125.304,66.616 C125.304,65.8799963 125.130668,65.3573349 124.784,65.048 C124.437332,64.7386651 123.869337,64.584 123.08,64.584 C122.109328,64.584 121.218671,64.7759981 120.408,65.16 L120.264,63.896 C121.170671,63.4799979 122.194661,63.272 123.336,63.272 C124.584006,63.272 125.471997,63.5493306 126,64.104 C126.528003,64.6586694 126.792,65.5706603 126.792,66.84 L126.792,73 L125.64,73 Z M125.288,70.296 L125.288,68.648 C124.893331,68.4133322 124.258671,68.296 123.384,68.296 C121.869326,68.296 121.112,68.8879941 121.112,70.072 C121.112,71.2880061 121.751994,71.896 123.032,71.896 C123.61867,71.896 124.141331,71.7306683 124.6,71.4 C125.058669,71.0693317 125.288,70.7013354 125.288,70.296 Z M131.128,73 L129.608,73 L129.608,60.376 L131.128,60.28 L131.128,73 Z M136.008,73 L134.488,73 L134.488,63.512 L136.008,63.432 L136.008,73 Z M135.256,60.232 C135.90667,60.232 136.232,60.5039973 136.232,61.048 C136.232,61.5920027 135.90667,61.864 135.256,61.864 C134.914665,61.864 134.666667,61.8026673 134.512,61.68 C134.357333,61.5573327 134.28,61.3466682 134.28,61.048 C134.28,60.5039973 134.60533,60.232 135.256,60.232 Z M144.584,73 L144.44,71.832 L144.392,71.816 C144.103999,72.2320021 143.712002,72.5573322 143.216,72.792 C142.719998,73.0266678 142.168003,73.144 141.56,73.144 C140.653329,73.144 139.938669,72.8933358 139.416,72.392 C138.893331,71.8906642 138.632,71.1226718 138.632,70.088 C138.632,69.1706621 138.922664,68.4586692 139.504,67.952 C140.085336,67.4453308 140.935994,67.192 142.056,67.192 C142.824004,67.192 143.554663,67.3146654 144.248,67.56 L144.248,66.616 C144.248,65.8799963 144.074668,65.3573349 143.728,65.048 C143.381332,64.7386651 142.813337,64.584 142.024,64.584 C141.053328,64.584 140.162671,64.7759981 139.352,65.16 L139.208,63.896 C140.114671,63.4799979 141.138661,63.272 142.28,63.272 C143.528006,63.272 144.415997,63.5493306 144.944,64.104 C145.472003,64.6586694 145.736,65.5706603 145.736,66.84 L145.736,73 L144.584,73 Z M144.232,70.296 L144.232,68.648 C143.837331,68.4133322 143.202671,68.296 142.328,68.296 C140.813326,68.296 140.056,68.8879941 140.056,70.072 C140.056,71.2880061 140.695994,71.896 141.976,71.896 C142.56267,71.896 143.085331,71.7306683 143.544,71.4 C144.002669,71.0693317 144.232,70.7013354 144.232,70.296 Z" id="South-Australia" fill="#FFFFFF"></path>
                </g>
                <g id="queensland" transform="translate(456.000000, 0.000000)">
                    <path d="M72.6154635,1.71660753 L74.3373253,3.43177976 L74.3373253,1.71660753 L74.3373253,0 L72.6154635,1.71660753 Z M76.021849,1.71660753 L74.3373253,3.43177976 L76.021849,3.43177976 L76.021849,5.11394031 L77.7422747,3.43177976 L77.7422747,1.71660753 L76.021849,1.71660753 Z M74.3373253,12.0133821 L74.3373253,13.8003189 L76.021849,12.0133821 L76.021849,10.3326568 L74.3373253,12.0133821 Z M79.5345044,12.0133821 L79.5345044,13.8003189 L77.7422747,15.5169264 L74.3373253,17.1976516 L74.3373253,22.3804859 L72.6154635,29.281363 L70.8261059,34.4641972 L70.8261059,36.1808048 L69.1387101,34.4641972 L67.4182844,37.8974123 L65.6992948,41.3650743 L65.6992948,44.7968541 L67.4182844,44.7968541 L67.4182844,46.5134616 L69.1387101,46.5134616 L69.1387101,48.2645161 L70.8261059,48.2645161 L70.8261059,49.9811236 L69.1387101,49.9811236 L67.4182844,49.9811236 L63.942967,53.4129034 L65.6992948,58.5971729 L63.942967,62.0633997 L63.942967,63.7800072 L62.2225414,67.17734 L62.2225414,70.679449 L63.942967,72.3616095 L63.942967,74.0782171 L63.942967,77.5444438 L62.2225414,79.2610513 L63.942967,86.1619284 L65.6992948,91.3461979 L63.942967,93.0613702 L62.2225414,99.960812 L60.5021157,105.145082 L60.5021157,108.542414 L60.5021157,112.044523 L58.7802539,115.441856 L57.0253622,118.9454 L53.5830748,125.80896 L51.8626491,129.242175 L50.1077574,132.709837 L46.666906,134.426444 L44.9464803,136.143052 L39.7493012,137.892671 L36.2725478,137.892671 L34.5521221,137.892671 L34.5521221,136.143052 L29.3549429,134.426444 L25.9499936,132.709837 L22.4387742,130.958782 L20.7528145,129.242175 L20.7528145,127.525567 L19.0323888,125.80896 L17.3119631,124.12967 L13.8352096,122.342733 L10.3929222,122.342733 L8.63659444,122.342733 L3.47531735,120.626126 L1.7204257,118.9454 L0,117.228793 L0,287.836042 L53.5830748,287.836042 L53.5830748,341.283392 L197.060546,341.283392 L198.74507,339.566785 L200.466932,337.88606 L203.943685,336.099123 L205.664111,334.383951 L207.384536,332.70179 L209.106398,332.70179 L209.106398,334.383951 L212.583152,334.383951 L217.778895,332.70179 L221.21831,332.70179 L224.695063,334.383951 L228.135915,334.383951 L231.612668,334.383951 L233.333094,336.099123 L235.054956,336.099123 L235.054956,337.88606 L238.531709,339.566785 L238.531709,341.283392 L240.252135,343 L241.936659,343 L243.657084,341.283392 L243.657084,339.566785 L247.132402,339.566785 L248.854263,341.283392 L248.854263,339.566785 L250.574689,339.566785 L252.366919,339.566785 L252.366919,336.099123 L252.366919,334.383951 L250.574689,332.70179 L254.051442,330.985183 L255.771868,330.985183 L257.492294,329.199681 L259.247186,329.199681 L260.969047,327.483074 L262.689473,329.199681 L262.689473,327.483074 L264.409899,329.199681 L266.166226,329.199681 L271.327504,329.199681 L273.082395,327.483074 L276.523247,327.483074 L278.245108,325.802348 L278.245108,324.085741 L278.245108,320.618079 L276.523247,318.901471 L273.082395,312.002029 L271.327504,308.534367 L273.082395,305.102588 L271.327504,293.018876 L273.082395,286.117999 L271.327504,286.117999 L269.607078,284.402827 L267.886652,280.935165 L267.886652,277.539268 L266.166226,274.035723 L262.689473,272.353563 L262.689473,270.63839 L260.969047,268.921783 L260.969047,267.134846 L259.247186,265.454121 L257.492294,263.737513 L254.051442,262.022341 L252.366919,260.269851 L250.574689,255.121464 L248.854263,253.37041 L245.447878,251.653802 L243.657084,251.653802 L241.936659,251.653802 L238.531709,248.222022 L236.739479,248.222022 L235.054956,246.470968 L233.333094,244.75436 L231.612668,243.037753 L231.612668,241.321145 L229.856341,236.138311 L229.856341,230.955477 L229.856341,225.771207 L228.135915,222.372439 L226.416925,222.372439 L226.416925,224.0546 L226.416925,225.771207 L224.695063,225.771207 L222.940172,224.0546 L219.497884,222.372439 L217.778895,220.657267 L217.778895,218.87033 L216.021131,218.87033 L214.302141,220.657267 L216.021131,224.0546 L216.021131,225.771207 L214.302141,224.0546 L212.583152,222.372439 L210.86129,222.372439 L210.86129,224.0546 L209.106398,220.657267 L207.384536,215.472997 L205.664111,210.290163 L205.664111,208.573556 L203.943685,205.105893 L202.187357,203.390721 L202.187357,201.674114 L202.187357,199.956071 L198.74507,196.489844 L195.269753,194.774672 L193.549327,193.058064 L191.828901,189.590402 L193.549327,187.873795 L195.269753,187.873795 L195.269753,186.157187 L193.549327,184.406133 L190.142941,182.689525 L188.352148,180.974353 L186.630286,180.974353 L183.226773,179.292193 L181.435979,177.506691 L179.750019,177.506691 L178.029594,177.506691 L176.307732,175.790084 L174.55284,175.790084 L172.830978,172.392751 L171.110553,170.607249 L169.390127,168.890642 L167.635235,168.890642 L165.91481,168.890642 L164.194384,168.890642 L164.194384,167.209916 L162.473958,165.493309 L158.997205,165.493309 L155.556353,165.493309 L153.801462,163.706372 L152.081036,162.025647 L150.359174,160.309039 L148.638749,158.593867 L148.638749,155.126205 L150.359174,153.409598 L146.882421,153.409598 L143.441569,148.225328 L143.441569,146.510156 L145.161995,143.042494 L145.161995,136.143052 L145.161995,132.709837 L141.75561,127.525567 L141.75561,124.12967 L139.964816,124.12967 L136.559867,120.626126 L134.839441,118.9454 L134.839441,117.228793 L133.047211,115.441856 L133.047211,113.759696 L133.047211,112.044523 L133.047211,108.542414 L133.047211,105.145082 L131.326785,101.677419 L131.326785,98.2442044 L131.326785,94.7779777 L131.326785,93.0613702 L129.640826,91.3461979 L131.326785,89.6281551 L131.326785,87.8771006 L129.640826,86.1619284 L126.129606,86.1619284 L124.445083,84.4453209 L119.247904,80.9776588 L117.527478,77.5444438 L115.805616,75.8637185 L114.08519,75.8637185 L110.608437,77.5444438 L108.889447,79.2610513 L107.169022,79.2610513 L103.692268,79.2610513 L103.692268,77.5444438 L101.971843,74.0782171 L101.971843,70.679449 L100.251417,68.9642767 L100.251417,67.17734 L100.251417,62.0633997 L98.4950891,58.5971729 L98.4950891,55.0936286 L98.4950891,51.6977312 L96.7746634,48.2645161 L96.7746634,46.5134616 L95.0542377,44.7968541 L95.0542377,43.0802466 L93.333812,41.3650743 L91.5789204,41.3650743 L91.5789204,39.6125845 L91.5789204,37.8974123 L93.333812,34.4641972 L91.5789204,34.4641972 L89.8570586,34.4641972 L88.1366329,32.7131427 L86.4506732,29.281363 L86.4506732,25.813701 L86.4506732,24.0970934 L86.4506732,22.3804859 L86.4506732,20.6983254 L84.6598795,17.1976516 L81.2549301,15.5169264 L81.2549301,13.8003189 L82.9394538,13.8003189 L81.2549301,12.0133821 L79.5345044,12.0133821 Z M25.9499936,115.441856 L22.4387742,115.441856 L22.4387742,117.228793 L20.7528145,118.9454 L20.7528145,120.626126 L22.4387742,120.626126 L24.2281318,120.626126 L24.2281318,118.9454 L25.9499936,118.9454 L25.9499936,117.228793 L27.6345172,117.228793 L29.3549429,117.228793 L27.6345172,115.441856 L25.9499936,115.441856 Z M25.9499936,125.80896 L24.2281318,127.525567 L25.9499936,127.525567 L27.6345172,127.525567 L27.6345172,125.80896 L25.9499936,125.80896 Z M146.882421,148.225328 L145.161995,148.225328 L146.882421,149.9405 L148.638749,151.69299 L150.359174,151.69299 L150.359174,149.9405 L148.638749,149.9405 L148.638749,148.225328 L146.882421,148.225328 Z M195.269753,182.689525 L197.060546,182.689525 L197.060546,180.974353 L195.269753,180.974353 L195.269753,182.689525 Z M197.060546,184.406133 L198.74507,184.406133 L197.060546,182.689525 L197.060546,184.406133 Z M214.302141,217.189605 L212.583152,217.189605 L214.302141,218.87033 L214.302141,217.189605 L214.302141,215.472997 L214.302141,217.189605 Z M224.695063,220.657267 L226.416925,220.657267 L224.695063,218.87033 L224.695063,220.657267 Z M235.054956,241.321145 L235.054956,243.037753 L236.739479,246.470968 L238.531709,246.470968 L238.531709,244.75436 L238.531709,243.037753 L236.739479,243.037753 L236.739479,241.321145 L235.054956,241.321145 Z M273.082395,263.737513 L273.082395,265.454121 L274.804257,267.134846 L273.082395,268.921783 L273.082395,270.63839 L269.607078,272.353563 L271.327504,274.035723 L271.327504,275.821225 L269.607078,277.539268 L269.607078,279.218558 L269.607078,282.651773 L271.327504,282.651773 L271.327504,280.935165 L273.082395,279.218558 L276.523247,270.63839 L276.523247,268.921783 L274.804257,267.134846 L274.804257,263.737513 L273.082395,263.737513 Z M276.523247,306.819195 L276.523247,308.534367 L276.523247,310.286857 L278.245108,310.286857 L276.523247,308.534367 L278.245108,305.102588 L276.523247,306.819195 Z M276.523247,313.718637 L276.523247,317.186299 L278.245108,317.186299 L280,313.718637 L278.245108,312.002029 L276.523247,313.718637 Z" id="Fill-12" fill="#FF69B4" opacity="1.00"></path>
                    <path d="M73.976,229 C73.976,230.92001 73.6960028,232.362662 73.136,233.328 C72.5759972,234.293338 71.6560064,234.877332 70.376,235.08 L72.984,236.952 L70.936,237.464 L68.696,235.224 C67.0426584,235.170666 65.853337,234.653338 65.128,233.672 C64.402663,232.690662 64.04,231.133344 64.04,229 C64.04,226.802656 64.4239962,225.221338 65.192,224.256 C65.9600038,223.290662 67.2346578,222.808 69.016,222.808 C70.7973422,222.808 72.0693295,223.287995 72.832,224.248 C73.5946705,225.208005 73.976,226.791989 73.976,229 Z M72.264,229 C72.264,227.773327 72.1546678,226.821337 71.936,226.144 C71.7173322,225.466663 71.3813356,224.994668 70.928,224.728 C70.4746644,224.461332 69.8373374,224.328 69.016,224.328 C67.8106606,224.328 66.9680024,224.655997 66.488,225.312 C66.0079976,225.968003 65.768,227.197324 65.768,229 C65.768,230.792009 66.0079976,232.02133 66.488,232.688 C66.9680024,233.35467 67.8106606,233.688 69.016,233.688 C70.2213394,233.688 71.0639976,233.35467 71.544,232.688 C72.0240024,232.02133 72.264,230.792009 72.264,229 Z M83.528,225.464 L83.528,231.864 C83.528,232.941339 83.2186698,233.762664 82.6,234.328 C81.9813302,234.893336 81.0533395,235.176 79.816,235.176 C78.5893272,235.176 77.6666698,234.89067 77.048,234.32 C76.4293302,233.74933 76.12,232.930672 76.12,231.864 L76.12,225.464 L77.624,225.464 L77.624,231.832 C77.624,233.13334 78.3599926,233.784 79.832,233.784 C81.2933406,233.784 82.024,233.13334 82.024,231.832 L82.024,225.464 L83.528,225.464 Z M89.928,235.192 C88.3706589,235.192 87.2426702,234.773338 86.544,233.936 C85.8453298,233.098662 85.496,231.778676 85.496,229.976 C85.496,228.461326 85.8266634,227.304004 86.488,226.504 C87.1493366,225.703996 88.1306602,225.304 89.432,225.304 C90.6160059,225.304 91.5386634,225.666663 92.2,226.392 C92.8613366,227.117337 93.192,228.221326 93.192,229.704 C93.192,229.917334 93.1813334,230.162665 93.16,230.44 L87.048,230.44 C87.0906669,231.67734 87.349331,232.549331 87.824,233.056 C88.298669,233.562669 89.0586614,233.816 90.104,233.816 C91.0000045,233.816 91.8639958,233.613335 92.696,233.208 L92.872,234.488 C92.0079957,234.957336 91.0266722,235.192 89.928,235.192 Z M87.016,229.4 L91.8,229.4 C91.7679998,227.543991 90.9840077,226.616 89.448,226.616 C88.647996,226.616 88.0560019,226.842664 87.672,227.296 C87.2879981,227.749336 87.0693336,228.450662 87.016,229.4 Z M99.176,235.192 C97.6186589,235.192 96.4906702,234.773338 95.792,233.936 C95.0933298,233.098662 94.744,231.778676 94.744,229.976 C94.744,228.461326 95.0746634,227.304004 95.736,226.504 C96.3973366,225.703996 97.3786602,225.304 98.68,225.304 C99.8640059,225.304 100.786663,225.666663 101.448,226.392 C102.109337,227.117337 102.44,228.221326 102.44,229.704 C102.44,229.917334 102.429333,230.162665 102.408,230.44 L96.296,230.44 C96.3386669,231.67734 96.597331,232.549331 97.072,233.056 C97.546669,233.562669 98.3066614,233.816 99.352,233.816 C100.248004,233.816 101.111996,233.613335 101.944,233.208 L102.12,234.488 C101.255996,234.957336 100.274672,235.192 99.176,235.192 Z M96.264,229.4 L101.048,229.4 C101.016,227.543991 100.232008,226.616 98.696,226.616 C97.895996,226.616 97.3040019,226.842664 96.92,227.296 C96.5359981,227.749336 96.3173336,228.450662 96.264,229.4 Z M111.944,235 L110.44,235 L110.44,228.696 C110.44,227.36266 109.720007,226.696 108.28,226.696 C107.853331,226.696 107.429335,226.791999 107.008,226.984 C106.586665,227.176001 106.269334,227.437332 106.056,227.768 L106.056,235 L104.536,235 L104.536,225.496 L105.624,225.416 L105.88,226.424 L105.928,226.424 C106.621337,225.666663 107.543994,225.288 108.696,225.288 C109.720005,225.288 110.51733,225.575997 111.088,226.152 C111.65867,226.728003 111.944,227.575994 111.944,228.696 L111.944,235 Z M120.312,232.2 C120.312,233.138671 120.034669,233.871997 119.48,234.4 C118.925331,234.928003 118.082672,235.192 116.952,235.192 C115.746661,235.192 114.77067,234.925336 114.024,234.392 L114.216,233.08 C114.952004,233.634669 115.858661,233.912 116.936,233.912 C117.597337,233.912 118.090665,233.770668 118.416,233.488 C118.741335,233.205332 118.904,232.824002 118.904,232.344 C118.904,231.949331 118.736002,231.629335 118.4,231.384 C118.063998,231.138665 117.656002,230.941334 117.176,230.792 C116.695998,230.642666 116.218669,230.477334 115.744,230.296 C115.269331,230.114666 114.864002,229.832002 114.528,229.448 C114.191998,229.063998 114.024,228.573336 114.024,227.976 C114.024,227.154663 114.30933,226.504002 114.88,226.024 C115.45067,225.543998 116.274661,225.304 117.352,225.304 C118.280005,225.304 119.138663,225.485332 119.928,225.848 L119.8,227.128 C118.989329,226.786665 118.162671,226.616 117.32,226.616 C116.754664,226.616 116.304002,226.730666 115.968,226.96 C115.631998,227.189334 115.464,227.501331 115.464,227.896 C115.464,228.269335 115.629332,228.567999 115.96,228.792 C116.290668,229.016001 116.695998,229.199999 117.176,229.344 C117.656002,229.488001 118.133331,229.647999 118.608,229.824 C119.082669,230.000001 119.485332,230.285331 119.816,230.68 C120.146668,231.074669 120.312,231.58133 120.312,232.2 Z M124.168,235 L122.648,235 L122.648,222.376 L124.168,222.28 L124.168,235 Z M132.632,235 L132.488,233.832 L132.44,233.816 C132.151999,234.232002 131.760002,234.557332 131.264,234.792 C130.767998,235.026668 130.216003,235.144 129.608,235.144 C128.701329,235.144 127.986669,234.893336 127.464,234.392 C126.941331,233.890664 126.68,233.122672 126.68,232.088 C126.68,231.170662 126.970664,230.458669 127.552,229.952 C128.133336,229.445331 128.983994,229.192 130.104,229.192 C130.872004,229.192 131.602663,229.314665 132.296,229.56 L132.296,228.616 C132.296,227.879996 132.122668,227.357335 131.776,227.048 C131.429332,226.738665 130.861337,226.584 130.072,226.584 C129.101328,226.584 128.210671,226.775998 127.4,227.16 L127.256,225.896 C128.162671,225.479998 129.186661,225.272 130.328,225.272 C131.576006,225.272 132.463997,225.549331 132.992,226.104 C133.520003,226.658669 133.784,227.57066 133.784,228.84 L133.784,235 L132.632,235 Z M132.28,232.296 L132.28,230.648 C131.885331,230.413332 131.250671,230.296 130.376,230.296 C128.861326,230.296 128.104,230.887994 128.104,232.072 C128.104,233.288006 128.743994,233.896 130.024,233.896 C130.61067,233.896 131.133331,233.730668 131.592,233.4 C132.050669,233.069332 132.28,232.701335 132.28,232.296 Z M143.704,235 L142.2,235 L142.2,228.696 C142.2,227.36266 141.480007,226.696 140.04,226.696 C139.613331,226.696 139.189335,226.791999 138.768,226.984 C138.346665,227.176001 138.029334,227.437332 137.816,227.768 L137.816,235 L136.296,235 L136.296,225.496 L137.384,225.416 L137.64,226.424 L137.688,226.424 C138.381337,225.666663 139.303994,225.288 140.456,225.288 C141.480005,225.288 142.27733,225.575997 142.848,226.152 C143.41867,226.728003 143.704,227.575994 143.704,228.696 L143.704,235 Z M153.56,235 L152.392,235 L152.2,234.008 L152.152,233.992 C151.543997,234.792004 150.60534,235.192 149.336,235.192 C148.055994,235.192 147.125336,234.792004 146.544,233.992 C145.962664,233.191996 145.672,231.933342 145.672,230.216 C145.672,226.93065 146.898654,225.288 149.352,225.288 C150.461339,225.288 151.35733,225.64533 152.04,226.36 L152.072,226.344 L152.04,225.064 L152.04,222.376 L153.56,222.28 L153.56,235 Z M152.04,232.76 L152.04,227.784 C151.837332,227.453332 151.533335,227.189334 151.128,226.992 C150.722665,226.794666 150.269336,226.696 149.768,226.696 C148.839995,226.696 148.186669,226.967997 147.808,227.512 C147.429331,228.056003 147.24,228.97866 147.24,230.28 C147.24,231.624007 147.423998,232.567997 147.792,233.112 C148.160002,233.656003 148.813329,233.928 149.752,233.928 C150.349336,233.928 150.837331,233.810668 151.216,233.576 C151.594669,233.341332 151.869332,233.069335 152.04,232.76 Z" id="Queensland" fill="#FFFFFF"></path>
                </g>
                <g id="northern" transform="translate(292.000000, 17.000000)">
                    <path d="M136.12038,6.90926313 L139.587629,3.50769149 L139.587629,0 L139.587629,1.71799444 L137.905626,3.50769149 L137.905626,5.18983463 L136.12038,6.90926313 L134.403962,6.90926313 L134.403962,8.62725757 L136.12038,6.90926313 Z M143.019031,86.3471464 L144.804277,88.0651409 L144.804277,86.3471464 L144.804277,84.5933007 L143.019031,82.8753063 L143.019031,84.5933007 L143.019031,86.3471464 Z M141.302613,58.7459452 L139.587629,56.9562482 L139.587629,55.2382537 L139.587629,53.5546765 L141.302613,51.835248 L141.302613,50.0469851 L139.587629,51.835248 L137.905626,51.835248 L137.905626,50.0469851 L137.905626,48.3289906 L136.12038,50.0469851 L134.403962,50.0469851 L132.723393,51.835248 L132.723393,55.2382537 L132.723393,56.9562482 L131.006975,58.7459452 L132.723393,58.7459452 L134.403962,58.7459452 L137.905626,58.7459452 L139.587629,58.7459452 L141.302613,60.4280884 L143.019031,58.7459452 L143.019031,56.9562482 L141.302613,58.7459452 Z M132.723393,10.3811033 L134.403962,10.3811033 L134.403962,8.62725757 L131.006975,10.3811033 L129.221729,12.0990978 L131.006975,12.0990978 L132.723393,10.3811033 Z M134.403962,84.5933007 L136.118946,84.5933007 L136.118946,82.8753063 L134.403962,82.8753063 L134.403962,84.5933007 Z M129.221729,50.0469851 L127.539725,50.0469851 L127.539725,51.835248 L129.221729,51.835248 L131.006975,50.0469851 L129.221729,48.3289906 L129.221729,50.0469851 Z M162,100.164239 L160.283582,98.3759757 L156.816333,94.974404 L153.384931,93.2564096 L148.202698,91.4667125 L146.484846,89.7845694 L144.804277,89.7845694 L143.019031,88.0651409 L139.587629,88.0651409 L137.905626,88.0651409 L137.905626,86.3471464 L137.905626,84.5933007 L136.12038,84.5933007 L134.403962,84.5933007 L131.006975,82.8753063 L131.006975,81.1558778 L129.221729,79.4378833 L125.824742,77.6840376 L122.323077,75.9646091 L117.209673,72.5286202 L115.458841,70.7747744 L115.458841,69.05678 L115.458841,67.3373515 L115.458841,65.6193571 L117.209673,65.6193571 L120.642508,60.4280884 L122.323077,58.7459452 L124.108324,56.9562482 L124.108324,53.5546765 L125.824742,51.835248 L124.108324,48.3289906 L124.108324,41.4541447 L129.221729,39.7361503 L131.006975,39.7361503 L132.723393,39.7361503 L132.723393,41.4541447 L134.403962,39.7361503 L136.12038,36.2643101 L136.12038,34.5463157 L134.403962,32.8268872 L136.12038,32.8268872 L143.019031,24.1996296 L141.302613,22.4457838 L137.905626,22.4457838 L136.12038,20.7263553 L136.12038,17.2903665 L134.403962,17.2903665 L131.006975,20.7263553 L131.006975,22.4457838 L131.006975,24.1996296 L131.006975,25.917624 L129.221729,25.917624 L127.539725,25.917624 L125.824742,24.1996296 L125.824742,22.4457838 L124.108324,20.7263553 L122.323077,22.4457838 L120.642508,22.4457838 L120.642508,20.7263553 L122.323077,19.0083609 L124.108324,19.0083609 L124.108324,17.2903665 L122.323077,17.2903665 L124.108324,15.5365207 L122.323077,17.2903665 L120.642508,17.2903665 L117.209673,19.0083609 L113.742423,20.7263553 L112.027439,22.4457838 L108.56019,22.4457838 L105.127354,20.7263553 L105.127354,19.0083609 L103.412371,19.0083609 L99.9451211,19.0083609 L96.5137197,19.0083609 L94.7628877,19.0083609 L93.04647,17.2903665 L87.8628027,15.5365207 L82.750832,15.5365207 L80.9655856,15.5365207 L79.249168,13.8170922 L77.5685986,13.8170922 L75.8507471,13.8170922 L74.0655006,12.0990978 L72.3849313,8.62725757 L70.6685137,8.62725757 L68.95353,6.90926313 L67.2026979,8.62725757 L65.4862803,10.3811033 L63.7698626,6.90926313 L60.3040469,5.18983463 L58.5876292,3.50769149 L58.5876292,5.18983463 L56.8712116,5.18983463 L56.8712116,6.90926313 L55.1547939,5.18983463 L53.4039619,3.50769149 L49.9725605,5.18983463 L53.4039619,6.90926313 L55.1547939,8.62725757 L56.8712116,10.3811033 L58.5876292,8.62725757 L62.053445,8.62725757 L65.4862803,12.0990978 L65.4862803,13.8170922 L65.4862803,15.5365207 L65.4862803,17.2903665 L65.4862803,19.0083609 L67.2026979,20.7263553 L65.4862803,20.7263553 L63.7698626,20.7263553 L62.053445,22.4457838 L62.053445,24.1996296 L60.3040469,22.4457838 L58.5876292,22.4457838 L56.8712116,22.4457838 L55.1547939,24.1996296 L53.4039619,22.4457838 L51.6889782,22.4457838 L48.2561429,24.1996296 L43.0739095,24.1996296 L41.3574919,22.4457838 L41.3574919,20.7263553 L41.3574919,19.0083609 L41.3574919,20.7263553 L39.6066598,22.4457838 L36.1752585,22.4457838 L36.1752585,24.1996296 L34.4946891,24.1996296 L34.4946891,25.917624 L34.4946891,27.6356185 L32.7080088,29.355047 L32.7080088,27.6356185 L30.9915911,25.917624 L29.3110218,25.917624 L29.3110218,27.6356185 L29.3110218,29.355047 L27.5946042,31.1088927 L25.8093577,31.1088927 L24.0929401,34.5463157 L20.6959531,36.2643101 L20.6959531,37.9478873 L20.6959531,39.7361503 L22.4123708,41.4541447 L20.6959531,43.1377219 L20.6959531,44.9259849 L18.9107067,44.9259849 L17.2301374,44.9259849 L15.5137197,46.6454134 L13.7973021,48.3289906 L13.7973021,50.0469851 L13.7973021,51.835248 L12.04647,53.5546765 L10.3314863,55.2382537 L8.61506869,58.7459452 L6.89865104,62.1475169 L8.61506869,63.8655113 L10.3314863,63.8655113 L12.04647,63.8655113 L12.04647,65.6193571 L10.3314863,65.6193571 L12.04647,67.3373515 L13.7973021,69.05678 L15.5137197,69.05678 L13.7973021,69.05678 L12.04647,69.05678 L10.3314863,70.7747744 L12.04647,72.5286202 L12.04647,74.2466146 L10.3314863,74.2466146 L10.3314863,72.5286202 L8.61506869,70.7747744 L6.89865104,70.7747744 L5.14781901,70.7747744 L3.43283529,70.7747744 L3.43283529,74.2466146 L3.43283529,75.9646091 L3.43283529,74.2466146 L3.43283529,72.5286202 L1.71641765,70.7747744 L0,70.7747744 L0,271 L162,271 L162,100.164239 Z M20.6959531,15.5365207 L24.0929401,13.8170922 L27.5946042,15.5365207 L29.3110218,15.5365207 L29.3110218,13.8170922 L27.5946042,13.8170922 L25.8093577,12.0990978 L25.8093577,10.3811033 L24.0929401,10.3811033 L24.0929401,8.62725757 L24.0929401,6.90926313 L22.4123708,6.90926313 L20.6959531,8.62725757 L20.6959531,10.3811033 L20.6959531,12.0990978 L20.6959531,13.8170922 L18.9107067,12.0990978 L18.9107067,15.5365207 L20.6959531,15.5365207 Z M62.053445,3.50769149 L63.7698626,6.90926313 L63.7698626,5.18983463 L65.4862803,3.50769149 L63.7698626,1.71799444 L63.7698626,0 L63.7698626,1.71799444 L62.053445,1.71799444 L63.7698626,3.50769149 L62.053445,3.50769149 Z M25.8093577,8.62725757 L27.5946042,12.0990978 L29.3110218,13.8170922 L34.4946891,17.2903665 L41.3574919,13.8170922 L43.0739095,10.3811033 L44.7888932,10.3811033 L44.7888932,8.62725757 L44.7888932,6.90926313 L43.0739095,6.90926313 L41.3574919,5.18983463 L41.3574919,3.50769149 L39.6066598,5.18983463 L37.8902422,5.18983463 L36.1752585,6.90926313 L34.4946891,6.90926313 L30.9915911,6.90926313 L29.3110218,6.90926313 L27.5946042,5.18983463 L25.8093577,3.50769149 L24.0929401,3.50769149 L24.0929401,5.18983463 L25.8093577,5.18983463 L25.8093577,8.62725757 Z" id="Fill-15" fill="#465961" opacity="0.393856957"></path>
                    <path d="M50.736,166 L49.568,166 L43.904,157.744 L43.2,156.656 L43.168,156.672 L43.184,157.968 L43.184,166 L41.712,166 L41.712,154 L43.2,154 L49.28,163.072 L49.312,163.056 L49.28,161.776 L49.28,154 L50.736,154 L50.736,166 Z M60.352,157.472 C61.0026699,158.240004 61.328,159.503991 61.328,161.264 C61.328,163.024009 61.0053366,164.287996 60.36,165.056 C59.7146634,165.824004 58.6720072,166.208 57.232,166.208 C55.7813261,166.208 54.7253366,165.821337 54.064,165.048 C53.4026634,164.274663 53.072,163.013342 53.072,161.264 C53.072,159.514658 53.40533,158.250671 54.072,157.472 C54.73867,156.693329 55.7919928,156.304 57.232,156.304 C58.6720072,156.304 59.7119968,156.693329 60.352,157.472 Z M55.216,158.416 C54.8319981,158.960003 54.64,159.909327 54.64,161.264 C54.64,162.618673 54.8346647,163.567997 55.224,164.112 C55.6133353,164.656003 56.2826619,164.928 57.232,164.928 C58.1600046,164.928 58.8159981,164.656003 59.2,164.112 C59.5840019,163.567997 59.776,162.618673 59.776,161.264 C59.776,159.909327 59.5840019,158.960003 59.2,158.416 C58.8159981,157.871997 58.1600046,157.6 57.232,157.6 C56.2826619,157.6 55.6106686,157.871997 55.216,158.416 Z M64.976,166 L63.456,166 L63.456,156.528 L64.672,156.448 L64.8,158.496 L64.832,158.496 C65.1306682,157.802663 65.5333308,157.266669 66.04,156.888 C66.5466692,156.509331 67.1199968,156.32 67.76,156.32 C68.1120018,156.32 68.4266653,156.362666 68.704,156.448 L68.608,157.984 C68.3519987,157.898666 68.0373352,157.856 67.664,157.856 C66.8959962,157.856 66.2560026,158.15733 65.744,158.76 C65.2319974,159.36267 64.976,160.165328 64.976,161.168 L64.976,166 Z M74.992,157.648 L72.64,157.648 L72.64,163.504 C72.64,164.432005 73.1039954,164.896 74.032,164.896 C74.3626683,164.896 74.6293323,164.853334 74.832,164.768 L74.928,165.92 C74.6079984,166.080001 74.1653362,166.16 73.6,166.16 C72.7893293,166.16 72.1733354,165.938669 71.752,165.496 C71.3306646,165.053331 71.12,164.405338 71.12,163.552 L71.12,157.648 L69.792,157.648 L69.792,156.464 L71.168,156.464 L71.456,154.096 L72.64,153.968 L72.64,156.464 L74.992,156.464 L74.992,157.648 Z M84.368,166 L82.864,166 L82.864,159.68 C82.864,158.357327 82.1440072,157.696 80.704,157.696 C80.2239976,157.696 79.7813354,157.799999 79.376,158.008 C78.9706646,158.216001 78.6666677,158.474665 78.464,158.784 L78.464,166 L76.96,166 L76.96,153.376 L78.464,153.28 L78.464,156.048 L78.448,157.328 L78.48,157.344 C79.1520034,156.639996 80.0426611,156.288 81.152,156.288 C82.1866718,156.288 82.9813306,156.58133 83.536,157.168 C84.0906694,157.75467 84.368,158.591995 84.368,159.68 L84.368,166 Z M90.768,166.192 C89.2106589,166.192 88.0826702,165.773338 87.384,164.936 C86.6853298,164.098662 86.336,162.778676 86.336,160.976 C86.336,159.461326 86.6666634,158.304004 87.328,157.504 C87.9893366,156.703996 88.9706602,156.304 90.272,156.304 C91.4560059,156.304 92.3786634,156.666663 93.04,157.392 C93.7013366,158.117337 94.032,159.221326 94.032,160.704 C94.032,160.917334 94.0213334,161.162665 94,161.44 L87.888,161.44 C87.9306669,162.67734 88.189331,163.549331 88.664,164.056 C89.138669,164.562669 89.8986614,164.816 90.944,164.816 C91.8400045,164.816 92.7039958,164.613335 93.536,164.208 L93.712,165.488 C92.8479957,165.957336 91.8666722,166.192 90.768,166.192 Z M87.856,160.4 L92.64,160.4 C92.6079998,158.543991 91.8240077,157.616 90.288,157.616 C89.487996,157.616 88.8960019,157.842664 88.512,158.296 C88.1279981,158.749336 87.9093336,159.450662 87.856,160.4 Z M97.648,166 L96.128,166 L96.128,156.528 L97.344,156.448 L97.472,158.496 L97.504,158.496 C97.8026682,157.802663 98.2053308,157.266669 98.712,156.888 C99.2186692,156.509331 99.7919968,156.32 100.432,156.32 C100.784002,156.32 101.098665,156.362666 101.376,156.448 L101.28,157.984 C101.023999,157.898666 100.709335,157.856 100.336,157.856 C99.5679962,157.856 98.9280026,158.15733 98.416,158.76 C97.9039974,159.36267 97.648,160.165328 97.648,161.168 L97.648,166 Z M110.656,166 L109.152,166 L109.152,159.696 C109.152,158.36266 108.432007,157.696 106.992,157.696 C106.565331,157.696 106.141335,157.791999 105.72,157.984 C105.298665,158.176001 104.981334,158.437332 104.768,158.768 L104.768,166 L103.248,166 L103.248,156.496 L104.336,156.416 L104.592,157.424 L104.64,157.424 C105.333337,156.666663 106.255994,156.288 107.408,156.288 C108.432005,156.288 109.22933,156.575997 109.8,157.152 C110.37067,157.728003 110.656,158.575994 110.656,159.696 L110.656,166 Z M49.912,176.536 L46.344,176.536 L46.344,187 L44.68,187 L44.68,176.536 L41.112,176.536 L41.16,175 L49.88,175 L49.912,176.536 Z M54.6,187.192 C53.0426589,187.192 51.9146702,186.773338 51.216,185.936 C50.5173298,185.098662 50.168,183.778676 50.168,181.976 C50.168,180.461326 50.4986634,179.304004 51.16,178.504 C51.8213366,177.703996 52.8026602,177.304 54.104,177.304 C55.2880059,177.304 56.2106634,177.666663 56.872,178.392 C57.5333366,179.117337 57.864,180.221326 57.864,181.704 C57.864,181.917334 57.8533334,182.162665 57.832,182.44 L51.72,182.44 C51.7626669,183.67734 52.021331,184.549331 52.496,185.056 C52.970669,185.562669 53.7306614,185.816 54.776,185.816 C55.6720045,185.816 56.5359958,185.613335 57.368,185.208 L57.544,186.488 C56.6799957,186.957336 55.6986722,187.192 54.6,187.192 Z M51.688,181.4 L56.472,181.4 C56.4399998,179.543991 55.6560077,178.616 54.12,178.616 C53.319996,178.616 52.7280019,178.842664 52.344,179.296 C51.9599981,179.749336 51.7413336,180.450662 51.688,181.4 Z M61.48,187 L59.96,187 L59.96,177.528 L61.176,177.448 L61.304,179.496 L61.336,179.496 C61.6346682,178.802663 62.0373308,178.266669 62.544,177.888 C63.0506692,177.509331 63.6239968,177.32 64.264,177.32 C64.6160018,177.32 64.9306653,177.362666 65.208,177.448 L65.112,178.984 C64.8559987,178.898666 64.5413352,178.856 64.168,178.856 C63.3999962,178.856 62.7600026,179.15733 62.248,179.76 C61.7359974,180.36267 61.48,181.165328 61.48,182.168 L61.48,187 Z M68.6,187 L67.08,187 L67.08,177.528 L68.296,177.448 L68.424,179.496 L68.456,179.496 C68.7546682,178.802663 69.1573308,178.266669 69.664,177.888 C70.1706692,177.509331 70.7439968,177.32 71.384,177.32 C71.7360018,177.32 72.0506653,177.362666 72.328,177.448 L72.232,178.984 C71.9759987,178.898666 71.6613352,178.856 71.288,178.856 C70.5199962,178.856 69.8800026,179.15733 69.368,179.76 C68.8559974,180.36267 68.6,181.165328 68.6,182.168 L68.6,187 Z M76.12,187 L74.6,187 L74.6,177.512 L76.12,177.432 L76.12,187 Z M75.368,174.232 C76.0186699,174.232 76.344,174.503997 76.344,175.048 C76.344,175.592003 76.0186699,175.864 75.368,175.864 C75.026665,175.864 74.7786674,175.802667 74.624,175.68 C74.4693326,175.557333 74.392,175.346668 74.392,175.048 C74.392,174.503997 74.7173301,174.232 75.368,174.232 Z M83.592,178.648 L81.24,178.648 L81.24,184.504 C81.24,185.432005 81.7039954,185.896 82.632,185.896 C82.9626683,185.896 83.2293323,185.853334 83.432,185.768 L83.528,186.92 C83.2079984,187.080001 82.7653362,187.16 82.2,187.16 C81.3893293,187.16 80.7733354,186.938669 80.352,186.496 C79.9306646,186.053331 79.72,185.405338 79.72,184.552 L79.72,178.648 L78.392,178.648 L78.392,177.464 L79.768,177.464 L80.056,175.096 L81.24,174.968 L81.24,177.464 L83.592,177.464 L83.592,178.648 Z M92.04,178.472 C92.6906699,179.240004 93.016,180.503991 93.016,182.264 C93.016,184.024009 92.6933366,185.287996 92.048,186.056 C91.4026634,186.824004 90.3600072,187.208 88.92,187.208 C87.4693261,187.208 86.4133366,186.821337 85.752,186.048 C85.0906634,185.274663 84.76,184.013342 84.76,182.264 C84.76,180.514658 85.09333,179.250671 85.76,178.472 C86.42667,177.693329 87.4799928,177.304 88.92,177.304 C90.3600072,177.304 91.3999968,177.693329 92.04,178.472 Z M86.904,179.416 C86.5199981,179.960003 86.328,180.909327 86.328,182.264 C86.328,183.618673 86.5226647,184.567997 86.912,185.112 C87.3013353,185.656003 87.9706619,185.928 88.92,185.928 C89.8480046,185.928 90.5039981,185.656003 90.888,185.112 C91.2720019,184.567997 91.464,183.618673 91.464,182.264 C91.464,180.909327 91.2720019,179.960003 90.888,179.416 C90.5039981,178.871997 89.8480046,178.6 88.92,178.6 C87.9706619,178.6 87.2986686,178.871997 86.904,179.416 Z M96.664,187 L95.144,187 L95.144,177.528 L96.36,177.448 L96.488,179.496 L96.52,179.496 C96.8186682,178.802663 97.2213308,178.266669 97.728,177.888 C98.2346692,177.509331 98.8079968,177.32 99.448,177.32 C99.8000018,177.32 100.114665,177.362666 100.392,177.448 L100.296,178.984 C100.039999,178.898666 99.7253352,178.856 99.352,178.856 C98.5839962,178.856 97.9440026,179.15733 97.432,179.76 C96.9199974,180.36267 96.664,181.165328 96.664,182.168 L96.664,187 Z M103.928,188.376 C104.312002,188.376 104.634665,188.285334 104.896,188.104 C105.157335,187.922666 105.389332,187.608002 105.592,187.16 L105.64,187 L101.464,177.464 L103.224,177.464 L105.944,184.392 L106.392,185.592 L106.44,185.592 L106.792,184.36 L108.984,177.464 L110.616,177.464 L107.144,187.112 C106.823998,187.976004 106.426669,188.599998 105.952,188.984 C105.477331,189.368002 104.888004,189.56 104.184,189.56 C103.639997,189.56 103.149336,189.458668 102.712,189.256 L102.856,188.12 C103.208002,188.290668 103.565332,188.376 103.928,188.376 Z" id="Northern-Territory" fill="#FFFFFF"></path>
                </g>
                <g id="western" transform="translate(0.000000, 68.000000)">
                    <path d="M252.022528,0 L250.305285,0 L250.305285,1.78749401 L250.305285,3.50469331 L248.516252,5.18746254 L246.833469,6.90466184 L245.114791,5.18746254 L243.396113,5.18746254 L241.677435,5.18746254 L241.677435,6.90466184 L239.924298,6.90466184 L239.924298,5.18746254 L238.207055,3.50469331 L236.488377,3.50469331 L238.207055,5.18746254 L238.207055,6.90466184 L236.488377,8.69359044 L236.488377,10.3749251 L236.488377,13.8093237 L234.769699,13.8093237 L234.769699,15.5638222 L233.016561,15.5638222 L233.016561,13.8093237 L233.016561,12.0921244 L231.297883,12.0921244 L231.297883,13.8093237 L229.580641,13.8093237 L229.580641,12.0921244 L231.297883,10.3749251 L229.580641,8.69359044 L229.580641,10.3749251 L227.861963,13.8093237 L226.108825,13.8093237 L224.390147,13.8093237 L222.671469,15.5638222 L220.952791,17.2810215 L220.952791,18.9982208 L222.671469,20.7154201 L224.390147,22.4684841 L224.390147,24.1856834 L222.671469,24.1856834 L220.952791,22.4684841 L219.199653,22.4684841 L219.199653,24.1856834 L217.482411,24.1856834 L215.763733,24.1856834 L215.763733,25.9028827 L215.763733,27.620082 L219.199653,27.620082 L219.199653,29.3731459 L219.199653,31.0903452 L217.482411,31.0903452 L217.482411,29.3731459 L214.080951,27.620082 L212.291917,27.620082 L212.291917,29.3731459 L210.573239,31.0903452 L208.890457,31.0903452 L207.173215,31.0903452 L207.173215,34.5261784 L207.173215,36.2778077 L208.890457,37.995007 L208.890457,39.7122063 L210.573239,37.995007 L212.291917,36.2778077 L212.291917,37.995007 L210.573239,39.7122063 L210.573239,41.3949756 L210.573239,43.1824696 L208.890457,43.1824696 L207.173215,41.3949756 L207.173215,43.1824696 L207.173215,44.8996689 L207.173215,46.6183028 L208.890457,46.6183028 L210.573239,46.6183028 L212.291917,46.6183028 L214.080951,46.6183028 L214.080951,48.2996374 L212.291917,46.6183028 L208.890457,48.2996374 L208.890457,46.6183028 L207.173215,46.6183028 L205.384181,46.6183028 L203.701399,46.6183028 L201.982721,44.8996689 L200.195123,44.8996689 L198.476445,46.6183028 L196.793663,46.6183028 L195.074985,43.1824696 L193.356306,43.1824696 L193.356306,44.8996689 L193.356306,46.6183028 L193.356306,48.2996374 L191.603169,48.2996374 L191.603169,50.088566 L193.356306,51.8057653 L195.074985,53.4871 L195.074985,55.2042993 L196.793663,55.2042993 L198.476445,56.9932279 L196.793663,58.6745625 L196.793663,60.3931964 L195.074985,60.3931964 L193.356306,58.6745625 L193.356306,60.3931964 L193.356306,62.1089611 L191.603169,65.5806589 L191.603169,67.2978582 L189.884491,65.5806589 L188.165813,63.827595 L186.412675,58.6745625 L184.695433,55.2042993 L182.976755,53.4871 L181.258076,48.2996374 L179.539398,50.088566 L177.787696,53.4871 L177.787696,55.2042993 L174.35034,55.2042993 L174.35034,56.9932279 L172.633098,58.6745625 L170.878525,58.6745625 L169.159847,60.3931964 L167.441168,63.827595 L167.441168,65.5806589 L167.441168,69.0164921 L167.441168,70.7681215 L169.159847,75.9197194 L170.878525,77.6727833 L169.159847,79.3899826 L163.970788,82.8258158 L160.534868,84.5774452 L160.534868,86.2946445 L158.85065,88.0132783 L157.061617,91.4835416 L157.061617,93.1993063 L155.344374,96.6007094 L151.942914,100.105403 L150.15388,103.503937 L146.75242,105.292865 L143.246144,107.010065 L136.372868,108.692834 L131.21827,110.411468 L124.310533,112.197527 L120.838718,112.197527 L117.402797,112.197527 L112.212304,112.197527 L105.304567,117.314695 L100.114074,117.314695 L94.9250155,119.067759 L93.2407971,119.067759 L89.8048768,122.502157 L86.333061,124.220791 L81.1425671,125.972421 L79.4253249,125.972421 L75.9879688,124.220791 L74.234831,124.220791 L70.7989108,124.220791 L69.0802327,124.220791 L67.3270949,125.972421 L56.9820027,131.124019 L53.5116227,132.877083 L51.7929447,134.594282 L48.3900483,136.311481 L46.6024508,139.712884 L41.483748,141.500378 L36.2918183,143.217578 L32.8214383,144.934777 L31.1041961,146.687841 L27.66684,153.592503 L25.9122664,155.311137 L24.1950241,156.992471 L22.4763461,156.992471 L22.4763461,153.592503 L22.4763461,151.805009 L22.4763461,146.687841 L22.4763461,144.934777 L20.757668,146.687841 L19.0059661,146.687841 L17.287288,153.592503 L13.8499319,160.497165 L15.56861,162.179934 L17.287288,163.897133 L17.287288,167.401826 L15.56861,169.084596 L15.56861,170.80323 L15.56861,174.272058 L12.09823,179.425091 L10.3795519,181.17672 L10.3795519,186.329752 L10.3795519,188.082816 L10.3795519,191.51865 L12.09823,194.987478 L12.09823,196.706112 L13.8499319,201.89214 L17.287288,205.327973 L20.757668,212.198205 L24.1950241,217.384233 L24.1950241,219.102867 L24.1950241,222.571696 L24.1950241,226.006094 L22.4763461,227.724728 L20.757668,226.006094 L19.0059661,224.290329 L17.287288,220.820066 L17.287288,222.571696 L15.56861,222.571696 L13.8499319,220.820066 L15.56861,220.820066 L15.56861,217.384233 L13.8499319,215.632604 L12.09823,213.915404 L10.3795519,212.198205 L8.66087387,213.915404 L8.66087387,215.632604 L12.09823,219.102867 L12.09823,222.571696 L15.56861,224.290329 L17.287288,226.006094 L17.287288,229.477792 L15.56861,229.477792 L15.56861,231.194991 L12.09823,229.477792 L12.09823,227.724728 L10.3795519,224.290329 L8.66087387,222.571696 L8.66087387,224.290329 L6.94363164,224.290329 L8.66087387,227.724728 L15.56861,234.62939 L20.757668,245.00575 L22.4763461,248.440148 L22.4763461,255.31038 L22.4763461,257.097874 L25.9122664,262.215042 L29.385518,265.719735 L31.1041961,267.402504 L31.1041961,269.119704 L31.1041961,272.589967 L36.2918183,276.024365 L38.0104963,281.213263 L38.0104963,282.930462 L38.0104963,286.400725 L38.0104963,293.303952 L38.0104963,296.739786 L39.6947147,301.927248 L41.483748,307.114711 L43.202426,308.83191 L46.6024508,315.700707 L50.1087263,322.606804 L51.7929447,326.112931 L51.7929447,334.700363 L51.7929447,338.136196 L50.1087263,338.136196 L50.1087263,339.887825 L50.1087263,346.791052 L50.1087263,350.226886 L48.3900483,351.944085 L48.3900483,355.414348 L44.8837727,357.131547 L41.483748,357.131547 L39.6947147,357.131547 L38.0104963,355.414348 L38.0104963,360.603245 L38.0104963,364.037644 L38.0104963,365.720413 L38.0104963,369.225106 L39.6947147,370.907876 L41.483748,369.225106 L43.202426,369.225106 L48.3900483,370.907876 L51.7929447,372.625075 L55.2992202,377.812537 L60.417923,379.529737 L65.6098527,381.282801 L72.516153,383 L75.9879688,383 L84.6158188,383 L86.333061,383 L89.8048768,383 L91.5221191,381.282801 L94.9250155,381.282801 L101.831316,377.812537 L108.740488,372.625075 L112.212304,372.625075 L113.929546,372.625075 L119.121475,370.907876 L120.838718,365.720413 L122.557396,364.037644 L126.027776,364.037644 L131.21827,362.320445 L136.372868,364.037644 L138.126006,362.320445 L143.246144,362.320445 L153.661592,360.603245 L158.85065,362.320445 L163.970788,360.603245 L165.759822,362.320445 L167.441168,364.037644 L177.787696,362.320445 L181.258076,362.320445 L182.976755,362.320445 L186.412675,364.037644 L188.165813,362.320445 L191.603169,362.320445 L193.356306,360.603245 L198.476445,357.131547 L200.195123,353.697149 L201.982721,348.509686 L203.701399,346.791052 L207.173215,345.039423 L208.890457,345.039423 L214.080951,343.322224 L222.671469,339.887825 L226.108825,338.136196 L227.861963,336.417562 L234.769699,332.983163 L238.207055,332.983163 L250.305285,332.983163 L255.494343,332.983163 L258.895804,332.983163 L265.80354,331.230099 L272.712712,329.5129 L281.33769,326.112931 L288.246862,322.606804 L290,322.606804 L290,20.7154201 L283.092264,18.9982208 L281.33769,18.9982208 L279.620448,18.9982208 L279.620448,20.7154201 L277.90177,20.7154201 L276.183092,22.4684841 L274.429954,22.4684841 L274.429954,24.1856834 L276.183092,25.9028827 L276.183092,27.620082 L274.429954,25.9028827 L274.429954,27.620082 L272.712712,27.620082 L272.712712,24.1856834 L274.429954,20.7154201 L274.429954,18.9982208 L276.183092,17.2810215 L274.429954,17.2810215 L269.311251,13.8093237 L267.522218,10.3749251 L265.80354,8.69359044 L264.120758,6.90466184 L262.331724,5.18746254 L258.895804,3.50469331 L255.494343,1.78749401 L253.706746,0 L252.022528,0 Z M220.952791,13.8093237 L219.199653,15.5638222 L220.952791,15.5638222 L220.952791,13.8093237 L220.952791,12.0921244 L220.952791,13.8093237 Z M208.890457,29.3731459 L210.574675,29.3731459 L210.574675,27.620082 L208.890457,27.620082 L208.890457,29.3731459 Z M44.8837727,125.972421 L43.202426,127.68962 L44.8837727,127.68962 L46.6024508,125.972421 L46.6024508,124.220791 L44.8837727,125.972421 Z M0,212.198205 L1.75170194,215.632604 L5.18905805,222.571696 L5.18905805,220.820066 L5.18905805,219.102867 L5.18905805,217.384233 L3.47038,217.384233 L1.75170194,212.198205 L0,212.198205 Z M6.94363164,224.290329 L5.18905805,222.571696 L6.94363164,224.290329 Z" id="Fill-17" fill="#465961" opacity="0.393856957"></path>
                    <path d="M135.688,197 L137.512,197 L139.704,206.136 L139.992,207.4 L140.04,207.4 L140.28,206.136 L142.248,197 L143.88,197 L140.984,209 L138.984,209 L136.856,199.864 L136.6,198.584 L136.552,198.584 L136.28,199.864 L134.168,209 L132.168,209 L129.256,197 L130.968,197 L132.936,206.184 L133.192,207.448 L133.24,207.448 L133.512,206.184 L135.688,197 Z M149.448,209.192 C147.890659,209.192 146.76267,208.773338 146.064,207.936 C145.36533,207.098662 145.016,205.778676 145.016,203.976 C145.016,202.461326 145.346663,201.304004 146.008,200.504 C146.669337,199.703996 147.65066,199.304 148.952,199.304 C150.136006,199.304 151.058663,199.666663 151.72,200.392 C152.381337,201.117337 152.712,202.221326 152.712,203.704 C152.712,203.917334 152.701333,204.162665 152.68,204.44 L146.568,204.44 C146.610667,205.67734 146.869331,206.549331 147.344,207.056 C147.818669,207.562669 148.578661,207.816 149.624,207.816 C150.520004,207.816 151.383996,207.613335 152.216,207.208 L152.392,208.488 C151.527996,208.957336 150.546672,209.192 149.448,209.192 Z M146.536,203.4 L151.32,203.4 C151.288,201.543991 150.504008,200.616 148.968,200.616 C148.167996,200.616 147.576002,200.842664 147.192,201.296 C146.807998,201.749336 146.589334,202.450662 146.536,203.4 Z M160.616,206.2 C160.616,207.138671 160.338669,207.871997 159.784,208.4 C159.229331,208.928003 158.386672,209.192 157.256,209.192 C156.050661,209.192 155.07467,208.925336 154.328,208.392 L154.52,207.08 C155.256004,207.634669 156.162661,207.912 157.24,207.912 C157.901337,207.912 158.394665,207.770668 158.72,207.488 C159.045335,207.205332 159.208,206.824002 159.208,206.344 C159.208,205.949331 159.040002,205.629335 158.704,205.384 C158.367998,205.138665 157.960002,204.941334 157.48,204.792 C156.999998,204.642666 156.522669,204.477334 156.048,204.296 C155.573331,204.114666 155.168002,203.832002 154.832,203.448 C154.495998,203.063998 154.328,202.573336 154.328,201.976 C154.328,201.154663 154.61333,200.504002 155.184,200.024 C155.75467,199.543998 156.578661,199.304 157.656,199.304 C158.584005,199.304 159.442663,199.485332 160.232,199.848 L160.104,201.128 C159.293329,200.786665 158.466671,200.616 157.624,200.616 C157.058664,200.616 156.608002,200.730666 156.272,200.96 C155.935998,201.189334 155.768,201.501331 155.768,201.896 C155.768,202.269335 155.933332,202.567999 156.264,202.792 C156.594668,203.016001 156.999998,203.199999 157.48,203.344 C157.960002,203.488001 158.437331,203.647999 158.912,203.824 C159.386669,204.000001 159.789332,204.285331 160.12,204.68 C160.450668,205.074669 160.616,205.58133 160.616,206.2 Z M166.84,200.648 L164.488,200.648 L164.488,206.504 C164.488,207.432005 164.951995,207.896 165.88,207.896 C166.210668,207.896 166.477332,207.853334 166.68,207.768 L166.776,208.92 C166.455998,209.080001 166.013336,209.16 165.448,209.16 C164.637329,209.16 164.021335,208.938669 163.6,208.496 C163.178665,208.053331 162.968,207.405338 162.968,206.552 L162.968,200.648 L161.64,200.648 L161.64,199.464 L163.016,199.464 L163.304,197.096 L164.488,196.968 L164.488,199.464 L166.84,199.464 L166.84,200.648 Z M172.44,209.192 C170.882659,209.192 169.75467,208.773338 169.056,207.936 C168.35733,207.098662 168.008,205.778676 168.008,203.976 C168.008,202.461326 168.338663,201.304004 169,200.504 C169.661337,199.703996 170.64266,199.304 171.944,199.304 C173.128006,199.304 174.050663,199.666663 174.712,200.392 C175.373337,201.117337 175.704,202.221326 175.704,203.704 C175.704,203.917334 175.693333,204.162665 175.672,204.44 L169.56,204.44 C169.602667,205.67734 169.861331,206.549331 170.336,207.056 C170.810669,207.562669 171.570661,207.816 172.616,207.816 C173.512004,207.816 174.375996,207.613335 175.208,207.208 L175.384,208.488 C174.519996,208.957336 173.538672,209.192 172.44,209.192 Z M169.528,203.4 L174.312,203.4 C174.28,201.543991 173.496008,200.616 171.96,200.616 C171.159996,200.616 170.568002,200.842664 170.184,201.296 C169.799998,201.749336 169.581334,202.450662 169.528,203.4 Z M179.32,209 L177.8,209 L177.8,199.528 L179.016,199.448 L179.144,201.496 L179.176,201.496 C179.474668,200.802663 179.877331,200.266669 180.384,199.888 C180.890669,199.509331 181.463997,199.32 182.104,199.32 C182.456002,199.32 182.770665,199.362666 183.048,199.448 L182.952,200.984 C182.695999,200.898666 182.381335,200.856 182.008,200.856 C181.239996,200.856 180.600003,201.15733 180.088,201.76 C179.575997,202.36267 179.32,203.165328 179.32,204.168 L179.32,209 Z M192.328,209 L190.824,209 L190.824,202.696 C190.824,201.36266 190.104007,200.696 188.664,200.696 C188.237331,200.696 187.813335,200.791999 187.392,200.984 C186.970665,201.176001 186.653334,201.437332 186.44,201.768 L186.44,209 L184.92,209 L184.92,199.496 L186.008,199.416 L186.264,200.424 L186.312,200.424 C187.005337,199.666663 187.927994,199.288 189.08,199.288 C190.104005,199.288 190.90133,199.575997 191.472,200.152 C192.04267,200.728003 192.328,201.575994 192.328,202.696 L192.328,209 Z M135.328,230 L134.368,227.136 L129.088,227.136 L128.128,230 L126.368,230 L130.784,218 L132.736,218 L137.168,230 L135.328,230 Z M131.744,219.2 L131.344,220.448 L129.568,225.712 L133.904,225.712 L132.16,220.448 L131.792,219.2 L131.744,219.2 Z M145.84,220.464 L145.84,226.864 C145.84,227.941339 145.53067,228.762664 144.912,229.328 C144.29333,229.893336 143.36534,230.176 142.128,230.176 C140.901327,230.176 139.97867,229.89067 139.36,229.32 C138.74133,228.74933 138.432,227.930672 138.432,226.864 L138.432,220.464 L139.936,220.464 L139.936,226.832 C139.936,228.13334 140.671993,228.784 142.144,228.784 C143.605341,228.784 144.336,228.13334 144.336,226.832 L144.336,220.464 L145.84,220.464 Z M154.208,227.2 C154.208,228.138671 153.930669,228.871997 153.376,229.4 C152.821331,229.928003 151.978672,230.192 150.848,230.192 C149.642661,230.192 148.66667,229.925336 147.92,229.392 L148.112,228.08 C148.848004,228.634669 149.754661,228.912 150.832,228.912 C151.493337,228.912 151.986665,228.770668 152.312,228.488 C152.637335,228.205332 152.8,227.824002 152.8,227.344 C152.8,226.949331 152.632002,226.629335 152.296,226.384 C151.959998,226.138665 151.552002,225.941334 151.072,225.792 C150.591998,225.642666 150.114669,225.477334 149.64,225.296 C149.165331,225.114666 148.760002,224.832002 148.424,224.448 C148.087998,224.063998 147.92,223.573336 147.92,222.976 C147.92,222.154663 148.20533,221.504002 148.776,221.024 C149.34667,220.543998 150.170661,220.304 151.248,220.304 C152.176005,220.304 153.034663,220.485332 153.824,220.848 L153.696,222.128 C152.885329,221.786665 152.058671,221.616 151.216,221.616 C150.650664,221.616 150.200002,221.730666 149.864,221.96 C149.527998,222.189334 149.36,222.501331 149.36,222.896 C149.36,223.269335 149.525332,223.567999 149.856,223.792 C150.186668,224.016001 150.591998,224.199999 151.072,224.344 C151.552002,224.488001 152.029331,224.647999 152.504,224.824 C152.978669,225.000001 153.381332,225.285331 153.712,225.68 C154.042668,226.074669 154.208,226.58133 154.208,227.2 Z M160.432,221.648 L158.08,221.648 L158.08,227.504 C158.08,228.432005 158.543995,228.896 159.472,228.896 C159.802668,228.896 160.069332,228.853334 160.272,228.768 L160.368,229.92 C160.047998,230.080001 159.605336,230.16 159.04,230.16 C158.229329,230.16 157.613335,229.938669 157.192,229.496 C156.770665,229.053331 156.56,228.405338 156.56,227.552 L156.56,221.648 L155.232,221.648 L155.232,220.464 L156.608,220.464 L156.896,218.096 L158.08,217.968 L158.08,220.464 L160.432,220.464 L160.432,221.648 Z M163.824,230 L162.304,230 L162.304,220.528 L163.52,220.448 L163.648,222.496 L163.68,222.496 C163.978668,221.802663 164.381331,221.266669 164.888,220.888 C165.394669,220.509331 165.967997,220.32 166.608,220.32 C166.960002,220.32 167.274665,220.362666 167.552,220.448 L167.456,221.984 C167.199999,221.898666 166.885335,221.856 166.512,221.856 C165.743996,221.856 165.104003,222.15733 164.592,222.76 C164.079997,223.36267 163.824,224.165328 163.824,225.168 L163.824,230 Z M174.64,230 L174.496,228.832 L174.448,228.816 C174.159999,229.232002 173.768002,229.557332 173.272,229.792 C172.775998,230.026668 172.224003,230.144 171.616,230.144 C170.709329,230.144 169.994669,229.893336 169.472,229.392 C168.949331,228.890664 168.688,228.122672 168.688,227.088 C168.688,226.170662 168.978664,225.458669 169.56,224.952 C170.141336,224.445331 170.991994,224.192 172.112,224.192 C172.880004,224.192 173.610663,224.314665 174.304,224.56 L174.304,223.616 C174.304,222.879996 174.130668,222.357335 173.784,222.048 C173.437332,221.738665 172.869337,221.584 172.08,221.584 C171.109328,221.584 170.218671,221.775998 169.408,222.16 L169.264,220.896 C170.170671,220.479998 171.194661,220.272 172.336,220.272 C173.584006,220.272 174.471997,220.549331 175,221.104 C175.528003,221.658669 175.792,222.57066 175.792,223.84 L175.792,230 L174.64,230 Z M174.288,227.296 L174.288,225.648 C173.893331,225.413332 173.258671,225.296 172.384,225.296 C170.869326,225.296 170.112,225.887994 170.112,227.072 C170.112,228.288006 170.751994,228.896 172.032,228.896 C172.61867,228.896 173.141331,228.730668 173.6,228.4 C174.058669,228.069332 174.288,227.701335 174.288,227.296 Z M180.128,230 L178.608,230 L178.608,217.376 L180.128,217.28 L180.128,230 Z M185.008,230 L183.488,230 L183.488,220.512 L185.008,220.432 L185.008,230 Z M184.256,217.232 C184.90667,217.232 185.232,217.503997 185.232,218.048 C185.232,218.592003 184.90667,218.864 184.256,218.864 C183.914665,218.864 183.666667,218.802667 183.512,218.68 C183.357333,218.557333 183.28,218.346668 183.28,218.048 C183.28,217.503997 183.60533,217.232 184.256,217.232 Z M193.584,230 L193.44,228.832 L193.392,228.816 C193.103999,229.232002 192.712002,229.557332 192.216,229.792 C191.719998,230.026668 191.168003,230.144 190.56,230.144 C189.653329,230.144 188.938669,229.893336 188.416,229.392 C187.893331,228.890664 187.632,228.122672 187.632,227.088 C187.632,226.170662 187.922664,225.458669 188.504,224.952 C189.085336,224.445331 189.935994,224.192 191.056,224.192 C191.824004,224.192 192.554663,224.314665 193.248,224.56 L193.248,223.616 C193.248,222.879996 193.074668,222.357335 192.728,222.048 C192.381332,221.738665 191.813337,221.584 191.024,221.584 C190.053328,221.584 189.162671,221.775998 188.352,222.16 L188.208,220.896 C189.114671,220.479998 190.138661,220.272 191.28,220.272 C192.528006,220.272 193.415997,220.549331 193.944,221.104 C194.472003,221.658669 194.736,222.57066 194.736,223.84 L194.736,230 L193.584,230 Z M193.232,227.296 L193.232,225.648 C192.837331,225.413332 192.202671,225.296 191.328,225.296 C189.813326,225.296 189.056,225.887994 189.056,227.072 C189.056,228.288006 189.695994,228.896 190.976,228.896 C191.56267,228.896 192.085331,228.730668 192.544,228.4 C193.002669,228.069332 193.232,227.701335 193.232,227.296 Z" id="Western-Australia" fill="#FFFFFF"></path>
                </g>
            </g>
        </g>
    </g>
</svg>