<?xml version="1.0" encoding="UTF-8"?>
<svg width="167px" height="64px" viewBox="0 0 167 64" version="1.1" xmlns="http://www.w3.org/2000/svg" xmlns:xlink="http://www.w3.org/1999/xlink">
    <!-- Generator: Sketch 52.2 (67145) - http://www.bohemiancoding.com/sketch -->
    <title>Group 37</title>
    <desc>Created with Sketch.</desc>
    <defs>
        <polygon id="path-1" points="0 64.0166667 166.935503 64.0166667 166.935503 0.393816815 0 0.393816815"></polygon>
    </defs>
    <g id="Page-1" stroke="none" stroke-width="1" fill="none" fill-rule="evenodd">
        <g id="QixleyLandingPageDetail" transform="translate(-150.000000, -14.000000)">
            <g id="Group-37" transform="translate(150.000000, 14.000000)">
                <polygon id="Fill-1" fill="#FF3AAC" points="96.2539311 26.9055556 90.9222222 26.9055556 90.9222222 46.1663965 90.9245338 46.1663965 90.9245338 46.3888889 103.911111 46.3888889 103.911111 41.6668544 96.2539311 41.6668544"></polygon>
                <polygon id="Fill-2" fill="#FF3AAC" points="133.6 46.3888889 133.6 41.6123076 123.976096 41.6123076 123.976096 38.885852 131.768142 38.885852 131.768142 34.8581463 123.976096 34.8581463 123.976096 31.682708 133.6 31.682708 133.6 26.9055556 123.976096 26.9055556 120.88282 26.9055556 118.755556 26.9055556 118.755556 46.3888889 120.88282 46.3888889 123.976096 46.3888889"></polygon>
                <polygon id="Fill-3" fill="#FF3AAC" points="35.2555556 46.3888889 40.8222222 46.3888889 40.8222222 26.9055556 35.2555556 26.9055556"></polygon>
                <polygon id="Fill-4" fill="#FF3AAC" points="69.504601 46.3888889 76.0777778 46.3888889 68.8787248 36.3790185 75.7592252 26.9055556 68.9070932 26.9055556 65.467434 31.635956 62.0655993 26.9055556 55.3754031 26.9055556 62.131792 36.2224704 54.7388889 46.3888889 61.6093421 46.3888889 65.5596311 40.948842"></polygon>
                <polygon id="Fill-5" fill="#FF3AAC" points="161.284242 26.9055556 157.274025 34.5908019 153.232995 26.9055556 147.516667 26.9055556 154.666927 39.8833383 154.754801 39.809925 154.754801 46.3888889 160.018068 46.3888889 160.018068 39.5761318 167 26.9055556"></polygon>
                <g id="Group-36">
                    <path d="M4.76249448,35.9144932 C4.76249448,32.9348603 7.19608759,30.5188027 10.1986324,30.5188027 C13.2006014,30.5188027 15.6347703,32.9348603 15.6347703,35.9144932 C15.6347703,38.8946976 13.2006014,41.3101836 10.1986324,41.3101836 C7.19608759,41.3101836 4.76249448,38.8946976 4.76249448,35.9144932 Z M19.756791,44.2286577 C19.6462255,44.0869065 19.4400669,44.0611856 19.2972531,44.1715 L17.6721703,45.4243976 C17.2287566,45.7662009 16.6811117,45.9382457 16.1196462,45.9359594 C15.6854462,45.9336731 14.8331703,45.8307891 14.2198772,45.216915 C17.8518393,43.6679403 20.3971497,40.087008 20.3971497,35.9144932 C20.3971497,30.3238948 15.8311393,25.7918577 10.1986324,25.7918577 C4.56612552,25.7918577 0.000115172414,30.3238948 0.000115172414,35.9144932 C0.000115172414,41.2627427 4.18202552,45.6313086 9.47592552,46.0011192 C10.4917462,48.695535 13.0140221,50.3108126 16.0810634,50.2462244 C17.7015393,50.2119298 19.2586703,49.6031999 20.5388117,48.6160857 L21.9358531,47.5380908 C22.0786669,47.4283479 22.1045807,47.2237232 21.9934393,47.081972 L19.756791,44.2286577 Z" id="Fill-6" fill="#FF3AAC"></path>
                    <path d="M38.7684166,18.0468128 C37.313789,18.0468128 36.1344234,19.2174032 36.1344234,20.6612077 C36.1344234,22.1055837 37.313789,23.2761742 38.7684166,23.2761742 C40.2230441,23.2761742 41.4029855,22.1055837 41.4029855,20.6612077 C41.4029855,19.2174032 40.2230441,18.0468128 38.7684166,18.0468128" id="Fill-8" fill="#FF3AAC"></path>
                    <path d="M47.3093724,2.3097442 C44.6419793,1.0385561 41.7903103,0.393816815 38.8344103,0.393816815 C35.8549,0.393816815 32.9830759,1.04827292 30.2984069,2.33889464 C27.7116345,3.58264702 25.4410103,5.34539167 23.5498793,7.57682976 C23.0022345,8.22328378 23.0863103,9.1881064 23.7376103,9.73224807 C24.0266931,9.97345372 24.3785448,10.0911987 24.728669,10.0911987 C25.1674759,10.0911987 25.6039793,9.90543601 25.9086103,9.54591384 C27.5192966,7.64541905 29.4478586,6.14674315 31.6418931,5.09218289 C33.9044552,4.00389955 36.3242276,3.45289896 38.8344103,3.45289896 C41.3244379,3.45289896 43.7275103,3.99589747 45.9756759,5.06760506 C48.1547379,6.10616116 50.0758138,7.58311711 51.6847724,9.45789092 C52.2370241,10.1003439 53.2096552,10.1780784 53.8575,9.62993571 C54.504769,9.08236458 54.5825103,8.11697039 54.0308345,7.47394583 C52.1408552,5.27222976 49.8794448,3.53463452 47.3093724,2.3097442" id="Fill-10" fill="#FF3AAC"></path>
                    <path d="M49.7672093,13.889216 C50.4386645,13.3702238 50.5590197,12.4094022 50.035561,11.742943 C47.2409024,8.18258747 43.13443,6.14034149 38.7682438,6.14034149 C34.3577162,6.14034149 30.2236024,8.21745369 27.4272162,11.8383964 C26.9095162,12.5082851 27.0373576,13.4685351 27.7128438,13.9823832 C27.9921369,14.1950099 28.32153,14.2978939 28.6491955,14.2978939 C29.1116128,14.2978939 29.5694231,14.0915544 29.8729024,13.6988808 C32.0819093,10.8392791 35.3240128,9.19942363 38.7682438,9.19942363 C42.1773472,9.19942363 45.3981438,10.8118434 47.6048472,13.622861 C48.12773,14.2893202 49.0957541,14.4082083 49.7672093,13.889216" id="Fill-12" fill="#FF3AAC"></path>
                    <path d="M42.5708914,13.0017278 C41.3707948,12.4347231 40.0912293,12.1472197 38.7684741,12.1472197 C36.2151017,12.1472197 33.829881,13.2183557 32.0521948,15.1645767 C31.4809397,15.7898823 31.5281603,16.7575628 32.1587293,17.3245676 C32.7892983,17.8921439 33.7636569,17.844703 34.3354879,17.2188258 C35.5211879,15.9207735 37.0955948,15.2057302 38.7684741,15.2057302 C40.4839672,15.2057302 42.0871672,15.9527819 43.2815052,17.3079918 C43.5861362,17.6537961 44.01285,17.8309851 44.4418672,17.8304136 C44.8023569,17.8304136 45.1634224,17.7058097 45.4559603,17.4526009 C46.096319,16.8964561 46.1613914,15.9304903 45.6010776,15.2943247 C44.7390121,14.3157842 43.7197362,13.5447264 42.5708914,13.0017278" id="Fill-14" fill="#FF3AAC"></path>
                    <polygon id="Fill-16" fill="#000000" points="2.04765034 57.1437916 1.11417793 57.1437916 1.11417793 63.890691 5.18321931 63.890691 5.21086069 63.0270376 2.04765034 63.0270376"></polygon>
                    <mask id="mask-2" fill="white">
                        <use xlink:href="#path-1"></use>
                    </mask>
                    <g id="Clip-19"></g>
                    <polygon id="Fill-18" fill="#000000" mask="url(#mask-2)" points="9.1349 63.8909196 10.0868 63.8909196 10.0868 57.1440202 9.1349 57.1440202"></polygon>
                    <polygon id="Fill-20" fill="#000000" mask="url(#mask-2)" points="17.1834362 62.3164526 16.9749741 63.0092044 16.9479086 63.0092044 16.7302328 62.3164526 15.017619 57.1436773 13.9839466 57.1436773 16.403719 63.8905767 17.4644569 63.8905767 19.8842293 57.1436773 18.9058397 57.1436773"></polygon>
                    <polygon id="Fill-21" fill="#000000" mask="url(#mask-2)" points="24.59743 60.7691926 27.407061 60.7691926 27.407061 59.9952768 24.59743 59.9952768 24.59743 57.9896118 27.8786921 57.9896118 27.8510507 57.1436773 23.6731714 57.1436773 23.6731714 63.8905767 28.0053817 63.8905767 28.0324472 63.054359 24.59743 63.054359"></polygon>
                    <path d="M37.7392934,62.8832859 C37.3649831,62.8832859 37.1772521,63.0661906 37.1772521,63.4320002 C37.1772521,63.6297659 37.2215934,63.7726603 37.3085486,63.85954 C37.3966555,63.9458482 37.5400452,63.9898597 37.7392934,63.9898597 C38.1141797,63.9898597 38.3013348,63.804097 38.3013348,63.4320002 C38.3013348,63.0661906 38.1141797,62.8832859 37.7392934,62.8832859" id="Fill-22" fill="#000000" mask="url(#mask-2)"></path>
                    <path d="M51.7515148,62.5009006 C51.4497631,62.8581365 50.9476114,63.0364686 50.2473631,63.0364686 L48.8422597,63.0364686 L48.8422597,58.0071592 L50.2381493,58.0071592 C50.9568252,58.0071592 51.4647355,58.1843482 51.7607286,58.5381546 C52.0567217,58.891961 52.2047183,59.5429877 52.2047183,60.4900914 C52.2047183,61.4737761 52.0538424,62.1442363 51.7515148,62.5009006 M50.2473631,57.1435058 L47.918001,57.1435058 L47.918001,63.8909768 L50.2652148,63.8909768 C51.2620321,63.8909768 51.9962562,63.6251933 52.4678872,63.0947695 C52.9389424,62.5637741 53.17447,61.6955481 53.17447,60.4900914 C53.17447,59.3092125 52.944701,58.4558475 52.485739,57.9305679 C52.0267769,57.4058598 51.2804597,57.1435058 50.2473631,57.1435058" id="Fill-23" fill="#000000" mask="url(#mask-2)"></path>
                    <polygon id="Fill-24" fill="#000000" mask="url(#mask-2)" points="58.2409045 60.7691926 61.0505355 60.7691926 61.0505355 59.9952768 58.2409045 59.9952768 58.2409045 57.9896118 61.5221666 57.9896118 61.4945252 57.1436773 57.3166459 57.1436773 57.3166459 63.8905767 61.6488562 63.8905767 61.6759217 63.054359 58.2409045 63.054359"></polygon>
                    <path d="M66.7787507,61.4797205 L67.7847817,58.5200928 L68.0116714,57.8181958 L68.0387369,57.8181958 L68.247199,58.5200928 L69.2348024,61.4797205 L66.7787507,61.4797205 Z M67.4674817,57.1437344 L64.9659369,63.8906339 L65.9627541,63.8906339 L66.5069438,62.2805004 L69.4979714,62.2805004 L70.0415852,63.8906339 L71.0838955,63.8906339 L68.5731369,57.1437344 L67.4674817,57.1437344 Z" id="Fill-25" fill="#000000" mask="url(#mask-2)"></path>
                    <polygon id="Fill-26" fill="#000000" mask="url(#mask-2)" points="75.7788414 57.1437916 74.845369 57.1437916 74.845369 63.890691 78.9144103 63.890691 78.9420517 63.0270376 75.7788414 63.0270376"></polygon>
                    <path d="M85.7850207,60.4632844 C85.5368241,60.3375374 85.2667448,60.2175061 84.973631,60.1037622 C84.6805172,59.9894468 84.4104379,59.891707 84.1628172,59.8111146 C83.9146207,59.7299506 83.7078862,59.6099194 83.5414621,59.4510209 C83.3756138,59.2926939 83.2921138,59.0989292 83.2921138,58.8708698 C83.2921138,58.577079 83.4044069,58.3370165 83.6278414,58.1512539 C83.8512759,57.9654913 84.2014,57.8723241 84.6793655,57.8723241 C85.2051276,57.8723241 85.7458621,57.9803523 86.301569,58.1964085 L86.4282586,57.3956286 C85.9266828,57.1555661 85.3289379,57.0355349 84.6338724,57.0355349 C83.8904345,57.0355349 83.3318483,57.209866 82.9569621,57.5579566 C82.5820759,57.9054756 82.3949207,58.3610228 82.3949207,58.9251697 C82.3949207,59.2726887 82.4778448,59.5727668 82.644269,59.8242609 C82.8106931,60.0763265 83.0174276,60.2638039 83.2656241,60.386693 C83.5132448,60.5101538 83.7833241,60.6284703 84.0764379,60.7422142 C84.3695517,60.8559581 84.639631,60.9565557 84.8878276,61.0434354 C85.1354483,61.1303152 85.3421828,61.2583485 85.5086069,61.4258207 C85.6744552,61.5938645 85.7579552,61.7950597 85.7579552,62.0288349 C85.7579552,62.3946444 85.6370241,62.6781468 85.3951621,62.8787704 C85.1533,63.0799657 84.7968414,63.1799917 84.3257862,63.1799917 C83.667,63.1799917 83.0537069,63.0090901 82.4859069,62.6672868 L82.3407897,63.5040761 C82.9327759,63.8458793 83.5973207,64.016781 84.3344241,64.016781 C85.0778621,64.016781 85.650269,63.835591 86.0522207,63.4726393 C86.4541724,63.1096877 86.6545724,62.6072712 86.6545724,61.9653898 C86.6545724,61.6058676 86.5716483,61.2966442 86.4058,61.0388628 C86.2393759,60.7810814 86.0326414,60.5890314 85.7850207,60.4632844" id="Fill-27" fill="#000000" mask="url(#mask-2)"></path>
                    <path d="M96.3257152,62.8832859 C95.950829,62.8832859 95.7630979,63.0661906 95.7630979,63.4320002 C95.7630979,63.6297659 95.8074393,63.7726603 95.8949703,63.85954 C95.9825014,63.9458482 96.125891,63.9898597 96.3257152,63.9898597 C96.7000255,63.9898597 96.8877566,63.804097 96.8877566,63.4320002 C96.8877566,63.0661906 96.7000255,62.8832859 96.3257152,62.8832859" id="Fill-28" fill="#000000" mask="url(#mask-2)"></path>
                    <polygon id="Fill-29" fill="#000000" mask="url(#mask-2)" points="107.437492 57.1437916 106.50402 57.1437916 106.50402 63.890691 110.573637 63.890691 110.600702 63.0270376 107.437492 63.0270376"></polygon>
                    <path d="M118.223043,62.5908097 C117.95066,62.9657645 117.473271,63.1532419 116.790874,63.1532419 C116.107902,63.1532419 115.630512,62.9657645 115.358705,62.5908097 C115.086898,62.2164265 114.950995,61.5248179 114.950995,60.517127 C114.950995,59.5037203 115.086898,58.8126832 115.358705,58.4440158 C115.630512,58.0747768 116.107902,57.8901574 116.790874,57.8901574 C117.256171,57.8901574 117.61666,57.9656056 117.874071,58.1153588 C118.130905,58.2651121 118.32094,58.530324 118.445326,58.9115661 C118.569136,59.2922367 118.630753,59.8278047 118.630753,60.517127 C118.630753,61.5248179 118.49485,62.2164265 118.223043,62.5908097 M116.790874,57.0356492 C115.781964,57.0356492 115.059833,57.3071484 114.624481,57.8501469 C114.189705,58.3925739 113.972029,59.2819483 113.972029,60.517127 C113.972029,61.7528773 114.190857,62.6451096 114.629088,63.1938239 C115.067319,63.7425382 115.787722,64.0168953 116.790874,64.0168953 C117.80036,64.0168953 118.520764,63.745396 118.95266,63.2023975 C119.384557,62.6599706 119.601081,61.7648804 119.601081,60.517127 C119.601081,59.2756609 119.384557,58.3851434 118.95266,57.8455743 C118.520764,57.3054337 117.80036,57.0356492 116.790874,57.0356492" id="Fill-30" fill="#000000" mask="url(#mask-2)"></path>
                    <path d="M126.452746,63.1710179 C125.709883,63.1710179 125.179514,62.9715374 124.862214,62.573148 C124.544914,62.174187 124.386552,61.4682889 124.386552,60.4543106 C124.386552,59.5066353 124.543763,58.8424624 124.857608,58.4617919 C125.171452,58.0811214 125.694911,57.8902145 126.42568,57.8902145 C126.969294,57.8902145 127.443804,57.9833816 127.848635,58.1691443 L127.966687,57.3415002 C127.507149,57.1317313 126.978508,57.0265611 126.380187,57.0265611 C125.359183,57.0265611 124.608259,57.3072056 124.12799,57.867923 C123.647721,58.4286404 123.407587,59.2905791 123.407587,60.4543106 C123.407587,61.6837736 123.643114,62.5851511 124.11417,63.1578717 C124.585801,63.7305922 125.325783,64.0163809 126.33527,64.0163809 C126.920921,64.0163809 127.473749,63.8849181 127.993752,63.6208493 L127.876277,62.8475051 C127.440925,63.0635614 126.966414,63.1710179 126.452746,63.1710179" id="Fill-31" fill="#000000" mask="url(#mask-2)"></path>
                    <path d="M133.095948,61.4797205 L134.101979,58.5200928 L134.328869,57.8181958 L134.355934,57.8181958 L134.564396,58.5200928 L135.552576,61.4797205 L133.095948,61.4797205 Z M133.784679,57.1437344 L131.28371,63.8906339 L132.280527,63.8906339 L132.824141,62.2805004 L135.815169,62.2805004 L136.358782,63.8906339 L137.401669,63.8906339 L134.89091,57.1437344 L133.784679,57.1437344 Z" id="Fill-32" fill="#000000" mask="url(#mask-2)"></path>
                    <polygon id="Fill-33" fill="#000000" mask="url(#mask-2)" points="142.095463 57.1437916 141.16199 57.1437916 141.16199 63.890691 145.231608 63.890691 145.258673 63.0270376 142.095463 63.0270376"></polygon>
                    <polygon id="Fill-34" fill="#000000" mask="url(#mask-2)" points="150.00798 57.1437916 149.074508 57.1437916 149.074508 63.890691 153.144125 63.890691 153.171191 63.0270376 150.00798 63.0270376"></polygon>
                    <polygon id="Fill-35" fill="#000000" mask="url(#mask-2)" points="159.090131 60.1035336 158.790683 60.760276 158.763618 60.760276 158.446318 60.1035336 156.968656 57.1439059 155.89928 57.1439059 158.291987 61.605639 158.291987 63.8908053 159.234673 63.8908053 159.234673 61.605639 161.591676 57.1439059 160.567218 57.1439059"></polygon>
                </g>
            </g>
        </g>
    </g>
</svg>